<?xml version="1.0" standalone="no"?>
<!DOCTYPE svg PUBLIC "-//W3C//DTD SVG 1.1//EN" "http://www.w3.org/Graphics/SVG/1.1/DTD/svg11.dtd" >
<svg xmlns="http://www.w3.org/2000/svg">
<metadata></metadata>
<defs>
<font id="old_standardregular" horiz-adv-x="1187" >
<font-face units-per-em="2048" ascent="1561" descent="-487" />
<missing-glyph horiz-adv-x="573" />
<glyph unicode="&#xfb01;" horiz-adv-x="1085" d="M57 0v49h107q25 0 35 10t10 35v783h-152v57h152v74q0 114 38.5 206.5t100.5 147.5t135 84t148 29q70 0 124.5 -19.5t86 -52t47.5 -70t16 -78.5q0 -61 -32 -95t-80 -34q-43 0 -70 24.5t-27 66.5q0 41 27 71q22 22 22 49q0 44 -38 66t-97 22q-39 0 -80 -19t-81.5 -58.5 t-66.5 -113t-26 -169.5v-131h533v-840q0 -25 10 -35t35 -10h86v-49h-410v49h86q25 0 35 10t10 35v737q0 25 -10 35.5t-35 10.5h-340v-783q0 -25 10 -35t35 -10h86v-49h-430z" />
<glyph unicode="&#xfb02;" horiz-adv-x="1085" d="M57 0v49h107q25 0 35 10t10 35v783h-152v57h152v74q0 114 38.5 206.5t100.5 147.5t135 84t148 29q50 0 112 -17h146v-1364q0 -25 10 -35t35 -10h106v-49h-430v49h86q25 0 35 10t10 35v783h-385v-783q0 -25 10 -35t35 -10h86v-49h-430zM356 934h385v207q-20 3 -32.5 26.5 t-12.5 53.5q0 38 33 75q16 16 16 47q0 32 -29.5 57t-105.5 25q-39 0 -80 -19t-81.5 -58.5t-66.5 -113t-26 -169.5v-131z" />
<glyph unicode="&#xfb03;" horiz-adv-x="1617" d="M57 0v49h107q25 0 35 10t10 35v783h-152v57h152v74q0 114 38.5 206.5t100.5 147.5t135 84t148 29q163 0 231 -134q61 66 140.5 100t160.5 34q70 0 124.5 -19.5t86.5 -52t48 -70t16 -78.5q0 -61 -32.5 -95t-80.5 -34q-43 0 -69.5 24.5t-26.5 66.5t26 71q23 23 23 49 q0 44 -38 66t-97 22q-39 0 -80 -19t-81.5 -58.5t-66.5 -113t-26 -169.5v-131h532v-840q0 -25 10 -35t35 -10h86v-49h-409v49h86q25 0 35 10t10 35v737q0 25 -10 35.5t-35 10.5h-340v-783q0 -25 10 -35t35 -10h86v-49h-430v49h106q25 0 35 10t10 35v783h-385v-783 q0 -25 10 -35t35 -10h86v-49h-430zM356 934h385v74q0 72 13 120q-35 3 -57.5 23.5t-22.5 56.5q0 54 33 80q34 34 34 53q0 38 -37.5 61t-93.5 23q-39 0 -80 -19t-81.5 -58.5t-66.5 -113t-26 -169.5v-131z" />
<glyph unicode="&#xfb04;" horiz-adv-x="1617" d="M57 0v49h107q25 0 35 10t10 35v783h-152v57h152v74q0 114 38.5 206.5t100.5 147.5t135 84t148 29q163 0 231 -134q61 66 140.5 100t160.5 34q51 0 113 -17h145v-1364q0 -25 10 -35t35 -10h107v-49h-430v49h86q25 0 35 10t10 35v783h-385v-783q0 -25 10 -35t35 -10h86v-49 h-430v49h106q25 0 35 10t10 35v783h-385v-783q0 -25 10 -35t35 -10h86v-49h-430zM356 934h385v74q0 72 13 120q-35 3 -57.5 23.5t-22.5 56.5q0 54 33 80q34 34 34 53q0 38 -37.5 61t-93.5 23q-39 0 -80 -19t-81.5 -58.5t-66.5 -113t-26 -169.5v-131zM889 934h385v207 q-20 3 -32.5 26.5t-12.5 53.5q0 38 33 75q16 16 16 47q0 32 -29.5 57t-105.5 25q-39 0 -80 -19t-81.5 -58.5t-66.5 -113t-26 -169.5v-131z" />
<glyph horiz-adv-x="2048" />
<glyph horiz-adv-x="2048" />
<glyph unicode="&#xd;" horiz-adv-x="2048" />
<glyph unicode=" "  horiz-adv-x="573" />
<glyph unicode="&#x09;" horiz-adv-x="573" />
<glyph unicode="&#xa0;" horiz-adv-x="573" />
<glyph unicode="!" horiz-adv-x="573" d="M160 102q0 56 36 91.5t91 35.5t91 -35.5t36 -91.5t-36 -91.5t-91 -35.5t-91 35.5t-36 91.5zM160 1274q0 67 35 107t92 40t92 -40t35 -107q0 -99 -31.5 -281.5t-38.5 -263.5l-33 -410h-49l-33 410q-7 80 -38 262.5t-31 282.5z" />
<glyph unicode="&#x22;" horiz-adv-x="806" d="M176 1401q0 47 19.5 70.5t50.5 23.5t50 -23.5t19 -70.5q0 -9 -4 -37l-41 -299h-49l-41 299q-4 28 -4 37zM492 1401q0 47 19 70.5t50 23.5t50.5 -23.5t19.5 -70.5q0 -9 -4 -37l-41 -299h-49l-41 299q-4 28 -4 37z" />
<glyph unicode="#" horiz-adv-x="1400" d="M166 401v82h248l73 439h-321v82h334l59 397h90l-61 -397h299l61 397h90l-61 -397h272v-82h-282l-70 -439h346v-82h-362l-62 -401h-90l62 401h-297l-64 -401h-90l63 401h-237zM504 483h303l70 439h-299z" />
<glyph unicode="$" d="M127 338q0 72 49 121q37 37 90 37q33 0 62 -25q24 -24 24 -65q0 -34 -14 -60.5t-59 -75.5q-25 -25 -25 -67q0 -54 55 -98t158 -62v639l-12 4q-279 112 -279 375q0 129 75 227t216 131v133h65v-122q40 4 66 4q33 0 49 -2v120h66v-129q150 -27 232.5 -118.5t82.5 -206.5 q0 -92 -29 -140q-31 -53 -96 -53q-38 0 -67 29q-19 23 -19 51q0 61 60 113q14 12 21 20.5t14.5 27.5t7.5 44q0 48 -51.5 98t-155.5 70v-582l41 -16q130 -51 200 -153t70 -224q0 -148 -80.5 -259t-230.5 -144v-152h-66v141q-16 -2 -49 -2q-46 0 -66 2v-141h-65v149 q-160 28 -250 121.5t-90 239.5zM274 1106q0 -88 38.5 -137t142.5 -90l12 -5v478q-97 -29 -145 -97.5t-48 -148.5zM532 35q20 -2 66 -2q33 0 49 2v575l-115 45v-620zM532 848l115 -45v563q-16 2 -49 2q-26 0 -66 -4v-516zM713 47q107 29 164 105.5t57 164.5q0 56 -12 97 t-37.5 69.5t-55 46.5t-75.5 37l-41 17v-537z" />
<glyph unicode="%" horiz-adv-x="1761" d="M197 1065q0 158 77.5 263.5t196.5 105.5q120 0 199.5 -106t79.5 -263t-79.5 -261t-199.5 -104q-119 0 -196.5 104t-77.5 261zM328 1065q0 -48 1.5 -83t6.5 -75t14.5 -67.5t25 -51.5t39.5 -35.5t56 -11.5t56.5 12t40 35.5t26 51t15.5 67t7 75.5t2 83q0 57 -2.5 99.5 t-11.5 88t-24.5 74.5t-43 47.5t-65.5 18.5q-32 0 -56 -12t-39.5 -36.5t-25 -52t-14.5 -68.5t-6.5 -76t-1.5 -83zM406 -37l872 1475h74l-873 -1475h-73zM1012 332q0 158 77.5 263t196.5 105q120 0 199.5 -105.5t79.5 -262.5t-79.5 -261t-199.5 -104q-119 0 -196.5 104 t-77.5 261zM1143 332q0 -48 1.5 -83t6.5 -75t14.5 -67.5t25 -51.5t39.5 -35.5t56 -11.5q47 0 78 25.5t45.5 75t19.5 100.5t5 123t-5 123.5t-19.5 101.5t-45.5 76t-78 26q-32 0 -56 -12t-39.5 -36t-25 -52t-14.5 -68.5t-6.5 -75.5t-1.5 -83z" />
<glyph unicode="&#x26;" horiz-adv-x="1609" d="M111 297q0 51 21 104t50 94.5t73 86t75 70.5t71 57l62 47l-21 30q-106 162 -106 299q0 153 93.5 254t221.5 101q62 0 109.5 -22t75 -59t41.5 -80.5t14 -90.5q0 -61 -20.5 -116t-62 -104.5t-78 -83.5t-93.5 -79l352 -500l8 10q71 88 118.5 190.5t47.5 162.5q0 37 -24 59.5 t-56 22.5h-92v65h508v-65h-63q-26 0 -44 -3t-43 -13t-47 -35.5t-42 -65.5q-56 -113 -102 -193t-69 -113.5t-59 -78.5q73 -101 122.5 -148t98.5 -47q41 0 74 14t57 39.5t38.5 48t29.5 54.5l33 -16q-14 -31 -25 -52.5t-37.5 -58.5t-54 -60t-70.5 -41t-92 -18q-143 0 -291 166 q-189 -166 -403 -166q-186 0 -292.5 84t-106.5 250zM307 313q0 -73 22 -131t57 -90.5t73.5 -49.5t75.5 -17q171 0 335 153l-36 47l-330 473l-21 -16q-176 -142 -176 -369zM467 1147q0 -66 34.5 -136t73.5 -120l21 -27q35 26 56.5 43.5t56.5 53t55.5 67.5t36.5 78t16 94 q0 72 -47.5 125t-116.5 53q-85 0 -135.5 -64t-50.5 -167z" />
<glyph unicode="'" horiz-adv-x="491" d="M176 1401q0 47 19.5 70.5t50.5 23.5t50 -23.5t19 -70.5q0 -9 -4 -37l-41 -299h-49l-41 299q-4 28 -4 37z" />
<glyph unicode="(" horiz-adv-x="757" d="M201 545q0 288 110 534.5t291 415.5l62 -49q-361 -379 -361 -901t361 -901l-62 -50q-181 169 -291 416t-110 535z" />
<glyph unicode=")" horiz-adv-x="757" d="M98 -356q361 379 361 901t-361 901l62 49q181 -169 291 -415.5t110 -534.5t-110 -535t-291 -416z" />
<glyph unicode="*" horiz-adv-x="1028" d="M147 842q0 78 138 96q77 11 151 53q21 11 21 23q0 5 -5.5 10.5t-10.5 8.5l-5 3q-77 44 -151 54q-138 18 -138 96q0 29 21 52.5t55 23.5q55 0 115 -80q43 -55 115 -101q18 -12 28 -12t13.5 6t3.5 25q0 83 -29 157q-25 62 -25 89q0 38 21 63t57 25t57 -25t21 -63 q0 -27 -25 -89q-28 -72 -28 -157q0 -20 3.5 -25.5t12.5 -5.5q11 0 29 12q72 46 115 101q31 41 56.5 60.5t57.5 19.5q34 0 55 -23.5t21 -52.5q0 -78 -137 -96q-76 -11 -152 -54q-20 -10 -20 -22q0 -5 5 -11t10 -9l5 -3q74 -42 152 -53q137 -18 137 -96q0 -29 -21 -52.5 t-55 -23.5q-32 0 -57.5 19.5t-56.5 60.5q-41 53 -115 100q-18 12 -29 12q-10 0 -13 -5.5t-3 -24.5q0 -86 28 -158q25 -62 25 -88q0 -38 -21 -63t-57 -25t-57 25t-21 63q0 26 25 88q29 74 29 158q0 19 -3.5 24.5t-13.5 5.5t-28 -12q-74 -47 -115 -100q-60 -80 -115 -80 q-34 0 -55 23.5t-21 52.5z" />
<glyph unicode="+" horiz-adv-x="1925" d="M98 500v82h820v819h90v-819h819v-82h-819v-819h-90v819h-820z" />
<glyph unicode="," horiz-adv-x="573" d="M147 168q0 54 37.5 86.5t81.5 32.5q78 0 125 -66q39 -53 39 -145q0 -127 -63 -240.5t-154 -179.5l-29 33q76 57 124 139.5t48 163.5q0 41 -37 61q-14 8 -69 8q-44 0 -73.5 32t-29.5 75z" />
<glyph unicode="-" horiz-adv-x="757" d="M123 459v114h512v-114h-512z" />
<glyph unicode="." horiz-adv-x="573" d="M160 102q0 56 36 91.5t91 35.5t91 -35.5t36 -91.5t-36 -91.5t-91 -35.5t-91 35.5t-36 91.5z" />
<glyph unicode="/" horiz-adv-x="921" d="M115 -406l610 1901h82l-610 -1901h-82z" />
<glyph unicode="0" d="M98 700q0 139 36 270.5t99 234.5t157.5 166t203.5 63q144 0 259.5 -107t176 -274t60.5 -353t-60.5 -352t-176 -273.5t-259.5 -107.5q-145 0 -260.5 107.5t-175.5 273.5t-60 352zM315 700q0 -67 2 -122t8.5 -126.5t18 -127t32.5 -112.5t49.5 -94.5t71.5 -61t97 -23.5 q53 0 96 23.5t71.5 61t49.5 94.5t32.5 112.5t18 127t8.5 126.5t2 122t-2 122.5t-8.5 127t-18 127.5t-32.5 112.5t-49.5 94t-71.5 61t-96 23.5q-54 0 -97 -23.5t-71.5 -61t-49.5 -94.5t-32.5 -112t-18 -127t-8.5 -127t-2 -123z" />
<glyph unicode="1" d="M246 0v66h196q31 0 44.5 12t13.5 41v1005h-254v74h112q111 0 179.5 60t85.5 143h65v-1282q0 -29 13 -41t44 -12h197v-66h-696z" />
<glyph unicode="2" d="M152 1067q0 158 115 262.5t290 104.5q201 0 330 -110t129 -298q0 -46 -13.5 -90.5t-40.5 -84.5t-55 -73.5t-69.5 -69t-70.5 -58t-71 -52.5l-200 -156q-87 -61 -133 -114.5t-46 -110.5q0 -49 64 -49h387q81 0 115.5 35.5t46.5 101.5l22 121h45l-28 -426h-799 q0 40 2.5 69.5t15.5 80.5t36.5 95.5t70 102.5t111.5 113l196 168q95 80 146 175.5t51 221.5q0 160 -78 247t-221 87q-100 0 -181 -66t-81 -149q0 -88 84 -103q65 -10 97 -44t32 -80q0 -39 -28 -66t-77 -27q-84 0 -139 66.5t-55 175.5z" />
<glyph unicode="3" d="M147 244q0 74 43.5 126t112.5 52q59 0 93 -31.5t34 -87.5q0 -43 -25.5 -74.5t-66.5 -31.5q-72 0 -72 -35q0 -129 258 -129q63 0 112.5 21t81 54.5t52 80t29 94t8.5 98.5q0 164 -70.5 246t-173.5 82q-48 0 -98 -19q-68 -22 -105 -22q-31 0 -54 14t-23 43t22.5 43t54.5 14 q35 0 97 -10q41 -6 112 -6q67 0 114.5 46t68 110.5t20.5 136.5q0 133 -61.5 221t-178.5 88q-64 0 -110.5 -12.5t-69 -33t-32 -40.5t-9.5 -41q0 -17 14 -38t40 -32q73 -30 73 -100q0 -42 -28.5 -70t-81.5 -28q-60 0 -104 50t-44 112q0 97 55 166.5t138 101t182 31.5 q186 0 300 -99t114 -262q0 -65 -24.5 -122t-64.5 -95.5t-84 -63.5t-89 -36v-17q48 -8 101 -35.5t102.5 -71t81.5 -110.5t32 -143q0 -124 -69 -219.5t-182 -144t-249 -48.5q-106 0 -189 29t-135.5 92.5t-52.5 155.5z" />
<glyph unicode="4" d="M115 393v74l635 936h73v-936h248v-74h-248v-274q0 -29 13 -41t43 -12h198v-66h-696v66h199q30 0 42.5 12t12.5 41v274h-520zM209 467h426v627z" />
<glyph unicode="5" d="M176 268q0 96 49.5 147.5t114.5 51.5q56 0 87.5 -34.5t31.5 -84.5q0 -36 -21 -65t-53 -43q-29 -13 -45 -28t-16 -40q0 -66 51.5 -102.5t173.5 -36.5q78 0 135.5 38.5t89.5 105.5t47 146.5t15 172.5q0 188 -65.5 288.5t-213.5 100.5q-60 0 -102.5 -17.5t-87.5 -62.5 q-22 -22 -35 -55.5t-13 -57.5q0 -51 -40 -51q-33 0 -33 51v707l45 35q42 -36 125 -61t155 -25q99 0 178.5 18.5t163.5 67.5l25 -29q-74 -96 -181.5 -154.5t-228.5 -58.5q-76 0 -121 9.5t-88 31.5v-391l13 -4q50 58 120.5 89t145.5 31q215 0 335 -127t120 -335 q0 -113 -40.5 -212t-108.5 -168t-160.5 -109t-194.5 -40q-170 0 -271.5 85.5t-101.5 215.5z" />
<glyph unicode="6" d="M164 643q0 169 42.5 331t125.5 267q150 193 350 193q144 0 236 -99q57 -67 57 -161q0 -72 -51 -117q-36 -31 -84 -31t-74 37q-16 20 -16 59q0 32 26 62q18 21 39 35q33 23 33 57q0 36 -41.5 64t-128.5 28q-166 0 -252 -186q-34 -76 -53 -191.5t-19 -191.5v-92l15 -7 q37 78 113.5 128.5t148.5 50.5q137 0 231 -68q81 -58 123.5 -154.5t42.5 -207.5q0 -81 -27.5 -164.5t-78 -155t-132.5 -117t-180 -45.5q-202 0 -324 182t-122 494zM381 422q0 -80 11.5 -146.5t36.5 -123t71.5 -88t109.5 -31.5q66 0 114.5 36.5t74 96.5t37.5 124t12 132 q0 76 -10.5 140.5t-33.5 120.5t-66 88t-103 32q-108 0 -181 -105.5t-73 -275.5z" />
<glyph unicode="7" d="M184 975l29 426h786q0 -106 -32 -243.5t-107 -250.5l-117 -176q-84 -123 -84 -266q0 -83 13 -154l12 -71q16 -83 16 -144q0 -129 -120 -129q-73 0 -117.5 53t-44.5 144q0 209 215 518l164 236q45 65 74.5 137t29.5 125q0 32 -15.5 42.5t-47.5 10.5h-424 q-81 0 -115.5 -35.5t-46.5 -101.5l-23 -121h-45z" />
<glyph unicode="8" d="M123 356q0 64 19 119.5t47 92t65 65t68.5 44t62.5 23.5v9l-23 10q-109 45 -166 133t-57 205q0 81 39.5 152.5t104 120t145.5 76.5t164 28q106 0 190.5 -30.5t136 -81.5t78.5 -113t27 -128q0 -58 -22 -111t-58.5 -91.5t-75 -66t-80.5 -46.5v-8l48 -19q241 -97 241 -309 q0 -94 -33 -177t-94.5 -147t-158.5 -101.5t-216 -37.5q-122 0 -223.5 45.5t-165 135.5t-63.5 208zM266 352q0 -85 30 -149.5t79.5 -100t105.5 -52.5t117 -17q69 0 125.5 20t92 51t59.5 70.5t33.5 75.5t9.5 69q0 60 -15 105t-45 75t-60.5 48t-76.5 37l-277 100 q-84 -34 -131 -110.5t-47 -221.5zM291 1106q0 -85 41.5 -137t132.5 -88l264 -101q91 49 127.5 121t36.5 168q0 127 -88 213t-213 86q-126 0 -213.5 -71.5t-87.5 -190.5z" />
<glyph unicode="9" d="M160 952q0 81 27.5 164.5t78 155t132.5 117t180 45.5q202 0 324 -182t122 -494q0 -169 -42.5 -331t-125.5 -267q-150 -193 -350 -193q-144 0 -236 99q-57 67 -57 161q0 72 51 117q36 31 84 31t74 -37q16 -20 16 -59q0 -32 -26 -62q-18 -21 -39 -35q-33 -23 -33 -57 q0 -36 41.5 -64t128.5 -28q166 0 252 186q34 76 53 191.5t19 191.5v92l-15 6q-37 -78 -113.5 -128t-148.5 -50q-137 0 -231 68q-81 58 -123.5 154.5t-42.5 207.5zM340 979q0 -76 10.5 -140.5t33.5 -120.5t66 -88t103 -32q108 0 181 105.5t73 275.5q0 80 -11.5 146.5 t-36.5 123t-71.5 88t-109.5 31.5q-66 0 -114.5 -36.5t-74 -96.5t-37.5 -124t-12 -132z" />
<glyph unicode=":" horiz-adv-x="573" d="M160 102q0 56 36 91.5t91 35.5t91 -35.5t36 -91.5t-36 -91.5t-91 -35.5t-91 35.5t-36 91.5zM160 831q0 55 36 91t91 36t91 -36t36 -91t-35.5 -90.5t-91.5 -35.5t-91.5 35.5t-35.5 90.5z" />
<glyph unicode=";" horiz-adv-x="573" d="M147 168q0 54 37.5 86.5t81.5 32.5q78 0 125 -66q39 -53 39 -145q0 -127 -63 -240.5t-154 -179.5l-29 33q76 57 124 139.5t48 163.5q0 41 -37 61q-14 8 -69 8q-44 0 -73.5 32t-29.5 75zM160 831q0 55 36 91t91 36t91 -36t36 -91t-35.5 -90.5t-91.5 -35.5t-91.5 35.5 t-35.5 90.5z" />
<glyph unicode="&#x3c;" horiz-adv-x="1925" d="M172 512v57l1548 832l41 -74l-1462 -786l1462 -787l-41 -73z" />
<glyph unicode="=" horiz-adv-x="1925" d="M98 303v82h1729v-82h-1729zM98 692v82h1729v-82h-1729z" />
<glyph unicode="&#x3e;" horiz-adv-x="1925" d="M164 -246l1462 787l-1462 786l41 74l1548 -832v-57l-1548 -831z" />
<glyph unicode="?" horiz-adv-x="962" d="M131 1137q0 81 52 147.5t130.5 101.5t161.5 35q107 0 197 -34t147.5 -106.5t57.5 -170.5q0 -52 -19.5 -101.5t-44.5 -85t-72.5 -77.5t-78.5 -65t-87 -62q-182 -126 -182 -244q0 -52 32 -75t83 -23q54 0 88.5 37t34.5 98q0 33 -10 53l36 17q23 -37 23 -72 q0 -83 -54.5 -139t-117.5 -56q-79 0 -131.5 43t-52.5 123q0 61 23 104t75 99l156 168q60 65 89 122.5t29 135.5q0 108 -58.5 179t-176.5 71q-95 0 -167.5 -49t-72.5 -111q0 -47 12 -59q10 -8 21 -8q14 0 20 2q14 4 37 4q34 0 54 -23.5t20 -58.5q0 -43 -28.5 -71t-84.5 -28 q-57 0 -99 48.5t-42 130.5zM381 102q0 56 35.5 91.5t91.5 35.5t91.5 -35.5t35.5 -91.5t-35.5 -91.5t-91.5 -35.5t-91.5 35.5t-35.5 91.5z" />
<glyph unicode="@" horiz-adv-x="1679" d="M98 727q0 208 101 384.5t276.5 280t384.5 103.5q135 0 250 -37t199 -103t143 -156t88 -198.5t29 -228.5q0 -63 -17 -130.5t-54.5 -134.5t-90.5 -120t-132.5 -86t-172.5 -33q-78 0 -132 41.5t-63 112.5l-10 2q-36 -54 -101 -105t-145 -51q-92 0 -160.5 66t-68.5 188 q0 129 35 255.5t102 207.5q87 104 181 152.5t180 48.5q53 0 95.5 -39t49.5 -74h10l23 88h147l-172 -635q-12 -50 -12 -88q0 -56 22 -88.5t52 -32.5q77 0 138 33.5t97 84.5t59.5 119.5t32 131.5t8.5 127q0 293 -171 459t-457 166q-176 0 -324 -98t-234.5 -271t-86.5 -383 q0 -309 175.5 -487.5t487.5 -178.5q178 0 361 119l32 -47q-177 -129 -413 -129q-344 0 -543 210t-199 554zM561 457q0 -63 30.5 -101.5t67.5 -38.5q103 0 187 109.5t125 259.5l47 174q10 38 10 76q0 78 -29.5 139.5t-78.5 61.5q-81 0 -146.5 -56.5t-126.5 -189.5 q-36 -79 -61 -201t-25 -233z" />
<glyph unicode="A" horiz-adv-x="1564" d="M94 0v66h76q37 0 66.5 13t49.5 37.5t32.5 46.5t23.5 52l440 1243h56l444 -1302q21 -51 50 -70.5t73 -19.5h115v-66h-635v66h135q30 0 51 15t21 36q0 24 -9 45l-92 268h-473l-47 -133q-29 -85 -29 -123q0 -42 24 -75t81 -33h108v-66h-561zM545 504h420l-213 620z" />
<glyph unicode="B" horiz-adv-x="1413" d="M127 0v66h147q56 0 56 55v1216q0 56 -56 56h-147v65h668q122 0 226.5 -43.5t168 -124t63.5 -180.5q0 -72 -27.5 -133.5t-73 -103.5t-99.5 -69.5t-113 -39.5v-8q62 -5 124.5 -32t115 -71.5t85.5 -111.5t33 -144q0 -125 -67 -216.5t-174.5 -136t-239.5 -44.5h-690zM518 121 q0 -55 55 -55h222q58 0 105 15t90 50t67 103t24 163q0 96 -24 163.5t-66.5 103t-90 50.5t-105.5 15h-277v-608zM518 795h268q70 0 122.5 17.5t83.5 45.5t49.5 70t25 85t6.5 97q0 123 -78 203t-192 80h-230q-29 0 -42 -13.5t-13 -42.5v-542z" />
<glyph unicode="C" horiz-adv-x="1372" d="M143 741q0 154 39.5 291t112 240t181.5 163t241 60q126 0 254 -94q27 -17 53 -39q33 -29 57 -29q16 0 23.5 9.5t17.5 35.5l35 101h51v-570h-51q-34 127 -85 227.5t-109.5 164t-121 96.5t-124.5 33q-73 0 -129 -21.5t-95 -65t-65 -100.5t-41 -138t-21 -167.5t-6 -196.5 q0 -133 10 -235.5t36.5 -195t70 -152.5t112.5 -94.5t161 -34.5q103 0 182.5 43t127.5 116t74.5 159t32.5 183h74q-2 -54 -12 -109.5t-31 -122.5t-58.5 -124.5t-89 -106t-129 -76.5t-171.5 -28q-116 0 -215.5 44t-170.5 119t-121.5 174.5t-75 211.5t-24.5 229z" />
<glyph unicode="D" horiz-adv-x="1597" d="M127 0v66h147q56 0 56 55v1216q0 56 -56 56h-147v65h750q127 0 240 -52.5t196.5 -145.5t132.5 -228t49 -291q0 -209 -83.5 -379.5t-225 -266t-309.5 -95.5h-750zM518 121q0 -55 55 -55h295q88 0 159 39.5t117 104.5t77 153.5t44 182.5t13 195t-13 192.5t-44 176.5 t-77 147t-116.5 99t-159.5 37h-295q-29 0 -42 -13.5t-13 -42.5v-1216z" />
<glyph unicode="E" horiz-adv-x="1413" d="M127 0v66h147q56 0 56 55v1216q0 56 -56 56h-147v65h1143l8 -463h-51q0 17 -2.5 46t-24 103t-57.5 130q-78 119 -240 119h-330q-29 0 -42 -13.5t-13 -42.5v-559h180q38 0 67 12t47 35.5t29.5 49t16.5 61t6.5 62.5t1.5 63h54v-641h-54q0 37 -1.5 64t-6.5 63t-16.5 61.5 t-29.5 49t-47 35.5t-67 12h-180v-584q0 -55 55 -55h328q55 0 119.5 25t105.5 79q42 56 71 151t37 161l9 67h51l-24 -549h-1143z" />
<glyph unicode="F" horiz-adv-x="1384" d="M127 1393v65h1143l8 -463h-51q0 17 -2.5 46t-24 103t-57.5 130q-78 119 -240 119h-330q-29 0 -42 -13.5t-13 -42.5v-559h180q38 0 67 12t47 35.5t29.5 49t16.5 61t6.5 62.5t1.5 63h54v-641h-54q0 37 -1.5 64t-6.5 63t-16.5 61.5t-29.5 49t-47 35.5t-67 12h-180v-584 q0 -55 55 -55h181v-66h-615v66h135q56 0 56 55v1216q0 56 -56 56h-147z" />
<glyph unicode="G" horiz-adv-x="1474" d="M143 729q0 123 25 237t74 210t117 167.5t160 111.5t198 40q126 0 254 -94q27 -17 53 -39q33 -29 57 -29q16 0 23.5 9.5t17.5 35.5l35 101h51v-570h-51q-34 127 -85 227.5t-109.5 164t-121 96.5t-124.5 33q-73 0 -129 -22.5t-95 -67t-65 -103.5t-41 -141t-21 -169t-6 -198 q0 -133 8.5 -233.5t32 -191.5t63 -149t103 -92t150.5 -34q75 0 146.5 54.5t114 138t42.5 165.5v217q0 29 -13 42t-42 13h-148v66h596v-66h-149q-29 0 -42.5 -13t-13.5 -42v-631h-65v187q0 69 -35 69q-36 0 -72 -61q-46 -75 -133 -140t-186 -65q-105 0 -197.5 40.5 t-160.5 112t-117 167.5t-74 210t-25 236z" />
<glyph unicode="H" horiz-adv-x="1613" d="M127 0v66h147q56 0 56 55v1216q0 56 -56 56h-147v65h594v-65h-148q-55 0 -55 -56v-534h619v534q0 56 -56 56h-147v65h594v-65h-148q-55 0 -55 -56v-1216q0 -55 55 -55h148v-66h-594v66h147q56 0 56 55v608h-619v-608q0 -55 55 -55h148v-66h-594z" />
<glyph unicode="I" horiz-adv-x="806" d="M127 0v66h147q56 0 56 55v1216q0 56 -56 56h-147v65h594v-65h-148q-29 0 -42 -13.5t-13 -42.5v-1216q0 -55 55 -55h148v-66h-594z" />
<glyph unicode="J" horiz-adv-x="1105" d="M90 260q0 81 51 133.5t107 52.5q58 0 91.5 -34t33.5 -82q0 -41 -29.5 -71t-69.5 -30q-33 0 -47 -14t-14 -47q0 -64 65 -101.5t160 -37.5q101 0 156 78t55 186v1044q0 29 -13 42.5t-42 13.5h-148v65h594v-65h-147q-29 0 -42 -13.5t-13 -42.5v-940q0 -101 -33 -185 t-89 -137.5t-127.5 -82.5t-150.5 -29q-152 0 -250 79.5t-98 217.5z" />
<glyph unicode="K" horiz-adv-x="1548" d="M127 0v66h147q56 0 56 55v1216q0 56 -56 56h-147v65h584v-65h-138q-29 0 -42 -13.5t-13 -42.5v-635l471 482q51 54 51 123q0 37 -26 61.5t-66 24.5h-55v65h541v-65h-82q-69 0 -185 -121l-344 -348l418 -768q27 -51 59.5 -70.5t94.5 -19.5h67v-66h-618v66h137q23 0 39 13 t16 30q0 30 -14 51l-334 626l-170 -172v-493q0 -55 55 -55h138v-66h-584z" />
<glyph unicode="L" horiz-adv-x="1372" d="M127 0v66h147q56 0 56 55v1216q0 56 -56 56h-147v65h627v-65h-181q-29 0 -42 -13.5t-13 -42.5v-1216q0 -55 55 -55h287q54 0 119 26t106 80q42 56 71 151t38 161l8 67h51l-26 -551h-1100z" />
<glyph unicode="M" horiz-adv-x="1716" d="M127 0v66h74q58 0 93.5 44t35.5 119v1108q0 56 -56 56h-147v65h434l334 -1128l311 1128h424v-65h-147q-56 0 -56 -56v-1216q0 -55 56 -55h147v-66h-594v66h148q55 0 55 55v1208l-375 -1354h-49l-391 1299h-12v-1045q0 -75 35.5 -119t93.5 -44h73v-66h-487z" />
<glyph unicode="N" horiz-adv-x="1576" d="M127 0v66h74q59 0 94 43.5t35 119.5v1108q-2 30 -14.5 43t-41.5 13h-147v65h387l711 -1143v914q0 76 -34.5 120t-92.5 44h-74v65h487v-65h-73q-58 0 -94.5 -44.5t-36.5 -119.5v-1266h-82l-805 1272h-8v-1006q0 -75 35.5 -119t93.5 -44h73v-66h-487z" />
<glyph unicode="O" horiz-adv-x="1433" d="M143 729q0 145 43.5 283t119.5 245t189 172.5t242 65.5t242 -65.5t189 -172.5t119.5 -245t43.5 -283t-43.5 -283t-119.5 -245t-189 -172.5t-242 -65.5t-242 65.5t-189 172.5t-119.5 245t-43.5 283zM360 729q0 -163 19.5 -287t62.5 -219t117 -144.5t178 -49.5t178 49.5 t117 144.5t62.5 219t19.5 287t-19.5 287t-62.5 219t-117 145t-178 50t-178 -50t-117 -145t-62.5 -219t-19.5 -287z" />
<glyph unicode="P" horiz-adv-x="1392" d="M127 0v66h147q56 0 56 55v1216q0 56 -56 56h-147v65h684q218 0 355 -106t137 -275q0 -170 -137.5 -279.5t-354.5 -109.5h-293v-567q0 -29 12 -42t43 -13h181v-66h-627zM518 754h320q111 0 179 95t68 228q0 132 -67.5 224t-179.5 92h-265q-29 0 -42 -13.5t-13 -42.5v-583z " />
<glyph unicode="Q" horiz-adv-x="1433" d="M143 737q0 195 72.5 367t210.5 281.5t311 109.5q130 0 242.5 -63.5t188.5 -168.5t119.5 -241t43.5 -281q0 -218 -93.5 -415t-248.5 -291l17 -111q8 -67 47.5 -98t89.5 -31q43 0 74 27t46.5 74.5t22 97.5t6.5 108h39q0 -446 -252 -446q-99 0 -163 69t-64 177v78 q-63 -17 -115 -17q-130 0 -243 66.5t-189 175.5t-119 248t-43 284zM360 737q0 -486 179 -641q-7 25 -7 58q0 78 57.5 137t137.5 59q90 0 152 -58t90 -163q145 165 145 608q0 162 -20 285.5t-63 217t-117 142t-177 48.5q-104 0 -178 -48.5t-117 -142t-62.5 -216.5t-19.5 -286 zM608 147q0 -63 23.5 -90.5t105.5 -27.5q55 0 115 24v53q0 81 -32.5 130t-94.5 49q-49 0 -83 -43t-34 -95z" />
<glyph unicode="R" horiz-adv-x="1466" d="M127 0v66h147q56 0 56 55v1216q0 56 -56 56h-147v65h672q73 0 136 -9.5t122.5 -32.5t101.5 -59.5t67 -94.5t25 -132q0 -77 -32.5 -141.5t-87.5 -107.5t-123 -69t-144 -34v-8q44 -8 78.5 -22t70.5 -42.5t62.5 -70.5t47.5 -108.5t32 -153.5q21 -168 39.5 -217.5t67.5 -49.5 q88 0 88 222h51q0 -353 -213 -353q-136 0 -187 97q-55 106 -59 362q-1 64 -11.5 119t-33 101.5t-62.5 73t-94 26.5h-223v-633q0 -29 12 -42t43 -13h183v-66h-629zM518 819h199q172 0 244.5 82.5t72.5 228.5q0 126 -67 194.5t-181 68.5h-213q-29 0 -42 -13.5t-13 -42.5v-518z " />
<glyph unicode="S" horiz-adv-x="1269" d="M180 627h49q13 -151 85.5 -289.5t181.5 -223.5t223 -85q88 0 153 24.5t100.5 66t51.5 88t16 99.5t-17 94.5t-51 72t-71 51.5t-90 42l-311 125q-316 126 -316 418q0 102 33.5 179t91.5 120.5t127.5 64.5t149.5 21q136 0 299 -123q55 -37 78 -37q34 0 41 49l8 74h49 l20 -532h-49q-49 222 -180 363t-283 141q-113 0 -187.5 -75t-74.5 -208q0 -91 47.5 -143.5t139.5 -88.5l395 -157q137 -55 205.5 -157.5t68.5 -215.5q0 -63 -16 -122t-50.5 -114t-85.5 -96t-126 -65.5t-166 -24.5q-87 0 -170 37.5t-143 83.5q-86 66 -103 66q-41 0 -53 -89 l-8 -81h-47z" />
<glyph unicode="T" horiz-adv-x="1462" d="M147 909l17 549h1175l17 -549h-51q0 10 -1 27.5t-8 67.5t-17 94.5t-31.5 98t-49.5 89.5q-17 22 -40 43t-69 42.5t-94 21.5h-94q-55 0 -55 -56v-1216q0 -55 55 -55h197v-66h-692v66h196q55 0 55 55v1216q0 30 -12.5 43t-42.5 13h-94q-69 0 -121.5 -34.5t-81.5 -72.5 q-28 -36 -49 -89t-31.5 -98.5t-17 -93t-7.5 -68.5t-1 -28h-52z" />
<glyph unicode="U" horiz-adv-x="1646" d="M127 1393v65h596v-65h-150q-29 0 -42 -13.5t-13 -42.5v-907q0 -190 91.5 -295.5t258.5 -105.5q97 0 176 31t129 84t76.5 120t26.5 142v821q0 75 -36.5 120.5t-94.5 45.5h-72v65h488v-65h-72q-58 0 -94.5 -45.5t-36.5 -120.5v-801q0 -96 -33.5 -180.5t-95 -147t-155 -99 t-206.5 -36.5t-205 29t-153 78.5t-102.5 117t-59.5 141.5t-18 156v852q0 56 -56 56h-147z" />
<glyph unicode="V" horiz-adv-x="1581" d="M90 1393v65h655v-65h-135q-29 0 -49 -15t-20 -37q0 -21 8 -45l350 -985l270 832q25 78 25 141q0 43 -23.5 76t-80.5 33h-111v65h553v-65h-76q-70 0 -109.5 -41.5t-62.5 -108.5l-416 -1280h-51l-477 1340q-19 52 -47.5 71t-73.5 19h-129z" />
<glyph unicode="W" horiz-adv-x="2187" d="M78 1393v65h606v-65h-98q-29 0 -49.5 -15t-20.5 -37q0 -17 8 -45l273 -942l247 897l-20 66q-13 40 -56.5 58t-88.5 18h-60v65h606v-65h-79q-105 0 -105 -107q0 -28 12 -63l258 -887l254 807q25 98 25 157q0 40 -36.5 66.5t-98.5 26.5h-70v65h553v-65h-88 q-70 0 -107 -41.5t-59 -108.5l-407 -1280h-52l-335 1139l-324 -1139h-51l-389 1340q-19 52 -47.5 71t-73.5 19h-127z" />
<glyph unicode="X" horiz-adv-x="1536" d="M94 0v66h64q68 0 113 36t89 101l347 518l-306 565q-21 38 -36 57t-46.5 34.5t-78.5 15.5h-125v65h635v-65h-123q-37 0 -37 -31q0 -27 16 -53l221 -410l195 291q41 61 41 117q0 34 -28 60t-72 26h-64v65h553v-65h-92q-61 0 -103 -23.5t-77 -77.5l-314 -471l363 -665 q29 -51 57 -70.5t70 -19.5h127v-66h-635v66h123q55 0 55 43q0 23 -14 51l-262 483l-236 -358q-51 -77 -51 -129q0 -37 19 -63.5t55 -26.5h110v-66h-553z" />
<glyph unicode="Y" horiz-adv-x="1490" d="M86 1393v65h635v-65h-123q-31 0 -51.5 -15t-20.5 -37q0 -30 11 -45l323 -546l209 401q10 15 22.5 57.5t12.5 67.5q0 48 -28 82.5t-85 34.5h-61v65h508v-65h-60q-35 0 -64.5 -13t-53 -39t-37 -45.5t-31.5 -52.5l-293 -557v-565q0 -55 55 -55h197v-66h-692v66h196 q56 0 56 55v530l-398 652q-32 53 -56 71.5t-64 18.5h-107z" />
<glyph unicode="Z" horiz-adv-x="1335" d="M139 0v66l848 1327h-385q-68 0 -125.5 -36.5t-97.5 -82.5q-48 -57 -85 -143t-50 -137t-13 -60h-51l74 524h950v-65l-839 -1327h452q114 0 211 114q51 59 91.5 158.5t55.5 169.5l15 70h51l-49 -578h-1053z" />
<glyph unicode="[" horiz-adv-x="778" d="M246 -381v1851l381 25l8 -53l-197 -33q-45 -7 -45 -66v-1597q0 -58 45 -65l197 -33l-8 -54z" />
<glyph unicode="\" horiz-adv-x="921" d="M115 1495h82l610 -1901h-82z" />
<glyph unicode="]" horiz-adv-x="778" d="M143 -352l197 33q45 7 45 65v1597q0 59 -45 66l-197 33l9 53l380 -25v-1851l-380 -25z" />
<glyph unicode="^" d="M127 688l471 746l463 -746h-98l-365 586l-373 -586h-98z" />
<glyph unicode="_" horiz-adv-x="1064" d="M0 -242h1065v-82h-1065v82z" />
<glyph unicode="`" horiz-adv-x="901" d="M156 1337q0 29 15 46.5t42 17.5q28 0 50.5 -14.5t49.5 -51.5l189 -272l-27 -23l-262 207q-57 43 -57 90z" />
<glyph unicode="a" horiz-adv-x="1024" d="M94 217q0 47 13 86t31 66t50 49.5t57.5 35.5t67.5 25.5t65 17.5t64 13l189 35v174q0 190 -191 190q-70 0 -127 -35.5t-57 -80.5q0 -21 6 -31q9 -17 31 -21q38 -10 57 -28t19 -51q0 -42 -25.5 -61t-64.5 -19q-45 0 -82 35t-37 100q0 112 87 176.5t199 64.5q62 0 118 -15.5 t105.5 -47.5t79 -90.5t29.5 -136.5v-504q0 -103 64 -103q35 0 57.5 31.5t30.5 75t8 98.5h37q0 -291 -164 -291q-88 0 -132.5 52t-47.5 145l-10 4q-13 -31 -35.5 -63t-54.5 -64.5t-77.5 -53t-93.5 -20.5q-49 0 -91 10t-84 35t-66.5 75t-24.5 122zM266 211q0 -50 12.5 -85 t34 -50.5t40.5 -21t40 -5.5q40 0 75 18.5t58 42.5t45.5 64t33.5 66.5t26 66.5v195l-178 -39q-99 -22 -143 -82t-44 -170z" />
<glyph unicode="b" horiz-adv-x="1048" d="M45 1409v49h299v-655l12 -4q40 67 107 113t135 46q107 0 188.5 -67t122.5 -177.5t41 -246.5t-43 -247t-126 -178t-191 -67q-97 0 -171.5 59t-119.5 138l-8 -4l-58 -168h-36v1364q0 25 -10 35t-35 10h-107zM344 346q0 -124 69 -222.5t181 -98.5q51 0 86.5 32.5t54.5 94.5 t27 137.5t8 177.5t-8 177.5t-27 137.5t-54.5 94.5t-86.5 32.5q-96 0 -173 -115t-77 -257v-191z" />
<glyph unicode="c" horiz-adv-x="892" d="M98 467q0 135 50 246.5t142.5 178t209.5 66.5q72 0 131.5 -24.5t97 -63.5t58 -86t20.5 -94q0 -64 -33 -99.5t-80 -35.5q-41 0 -68.5 26.5t-27.5 63.5t21 61t49 33q32 10 32 37q0 17 -11 38.5t-33 43.5t-63 36.5t-93 14.5q-55 0 -94.5 -21.5t-63.5 -58t-38.5 -94.5 t-19.5 -120.5t-5 -147.5t5 -147.5t19 -120.5t38 -94.5t64 -58t95 -21.5q65 0 116.5 26.5t83 71t50 93.5t24.5 103h49q-4 -61 -25 -119.5t-59 -110t-100 -83t-139 -31.5q-118 0 -210.5 66.5t-142 178.5t-49.5 247z" />
<glyph unicode="d" horiz-adv-x="1069" d="M98 467q0 136 41.5 246.5t123 177.5t188.5 67q68 0 134.5 -46t106.5 -113l13 4v561q0 25 -10.5 35t-35.5 10h-147v49h340v-1364q0 -25 10 -35t35 -10h107v-49h-299v86l-11 6q-40 -47 -103.5 -82t-131.5 -35q-108 0 -191 67t-126.5 178.5t-43.5 246.5zM279 467 q0 -102 8 -177.5t27 -137.5t54.5 -94.5t86.5 -32.5q112 0 181 98.5t69 222.5v191q0 142 -77 257t-173 115q-51 0 -86.5 -32.5t-54.5 -94.5t-27 -137.5t-8 -177.5z" />
<glyph unicode="e" horiz-adv-x="942" d="M98 467q0 126 46.5 237.5t136.5 182.5t202 71q73 0 134.5 -31t102.5 -81t69.5 -116t41.5 -134.5t13 -136.5h-565q0 -100 10.5 -174t35.5 -135.5t72 -93t115 -31.5q41 0 79 12.5t77 43t67.5 91.5t38.5 147h49q-11 -151 -91.5 -247.5t-223.5 -96.5q-186 0 -298 137 t-112 355zM279 516h389q0 72 -10 138t-31 125t-60 94.5t-92 35.5t-92.5 -35.5t-61 -94.5t-32 -125t-10.5 -138z" />
<glyph unicode="f" horiz-adv-x="675" d="M57 0v49h107q25 0 35 10t10 35v783h-152v57h152v141q0 104 28 184.5t74.5 125.5t100 67.5t110.5 22.5q87 0 149 -54t62 -155q0 -53 -26 -84t-70 -31q-36 0 -60 23.5t-24 62.5q0 50 37 74q33 17 33 49q0 35 -32.5 50t-72.5 15q-31 0 -57.5 -13t-51.5 -43t-39 -90.5 t-14 -145.5v-199h193v-57h-193v-783q0 -25 10 -35t35 -10h148v-49h-492z" />
<glyph unicode="g" horiz-adv-x="1105" d="M106 -250q0 75 59.5 133t141.5 70v6q-180 38 -180 152q0 84 64 132.5t159 63.5v6q-30 13 -57 30t-55.5 44.5t-48.5 60t-33 78t-13 97.5q0 104 53 182t135 115.5t177 37.5q87 0 169.5 -38.5t102.5 -67.5q19 53 59.5 79.5t82.5 26.5q70 0 114.5 -41t44.5 -106 q0 -48 -23.5 -79.5t-62.5 -31.5q-33 0 -57.5 18t-24.5 56q0 45 35 66q23 14 23 37q0 16 -16.5 24t-39.5 8q-37 0 -66 -30t-34 -68q57 -83 57 -188q0 -154 -105 -245t-259 -91q-52 0 -99.5 -6t-95 -20.5t-76 -43t-28.5 -67.5t35 -53.5t96 -14.5q43 0 70 2q25 2 63 2h211 q131 0 219 -71t88 -208q0 -143 -122 -218.5t-320 -75.5q-83 0 -157.5 12t-141 38.5t-105.5 74.5t-39 112zM197 -246q0 -50 32.5 -88.5t85.5 -60t112.5 -32.5t121.5 -11q66 0 126 10.5t117.5 34.5t91.5 71t34 113q0 29 -7.5 54.5t-25 49.5t-52.5 38t-85 14h-228 q-59 0 -111.5 -9t-102.5 -29.5t-79.5 -60t-29.5 -94.5zM307 623q0 -135 53 -211t148 -76t148 76t53 211t-53 210.5t-148 75.5t-148 -75.5t-53 -210.5z" />
<glyph unicode="h" horiz-adv-x="1114" d="M57 0v49h115q25 0 35 10t10 35v1270q0 25 -10 35t-35 10h-115v49h308v-713l8 -2q54 103 128 159t156 56q103 0 166 -53q50 -40 72.5 -112.5t22.5 -139.5v-559q0 -25 10 -35t35 -10h86v-49h-410v49h86q25 0 35 10t10 35v600q0 41 -6 76t-19.5 68t-40.5 52t-65 19 q-43 0 -91.5 -31t-89 -82t-67 -125t-26.5 -151v-426q0 -25 10 -35t35 -10h86v-49h-439z" />
<glyph unicode="i" horiz-adv-x="552" d="M78 0v49h86q25 0 35 10t10 35v746q0 25 -10 35t-35 10h-86v49h278v-840q0 -25 10 -35t35 -10h86v-49h-409zM164 1294q0 46 30 76.5t76 30.5t76.5 -30.5t30.5 -76.5t-30.5 -76t-76.5 -30t-76 30t-30 76z" />
<glyph unicode="j" horiz-adv-x="655" d="M-78 -279q0 53 26 84t70 31q36 0 60 -23.5t24 -62.5q0 -51 -36 -74q-33 -17 -33 -49q0 -35 32 -50t72 -15q31 0 57.5 13t51.5 43.5t39 91t14 145.5v985q0 25 -10 35t-35 10h-148v49h340v-1022q0 -104 -28 -184t-74.5 -125.5t-100 -67.5t-110.5 -22q-87 0 -149 53.5 t-62 154.5zM254 1294q0 46 30 76.5t76 30.5t76.5 -30.5t30.5 -76.5t-30.5 -76t-76.5 -30t-76 30t-30 76z" />
<glyph unicode="k" horiz-adv-x="1064" d="M57 0v49h107q25 0 35 10t10 35v1270q0 25 -10 35t-35 10h-107v49h299v-1042l279 340q22 26 29.5 39.5t7.5 35.5q0 27 -19.5 40.5t-50.5 13.5h-53v49h418v-49h-66q-55 0 -97.5 -28t-98.5 -97l-156 -191l319 -454q17 -24 26.5 -35.5t27.5 -21t41 -9.5h41v-49h-435v49h54 q55 0 55 41q0 32 -27 74l-200 287l-95 -115v-242q0 -25 10 -35t35 -10h66v-49h-410z" />
<glyph unicode="l" horiz-adv-x="552" d="M57 0v49h107q25 0 35 10t10 35v1270q0 25 -10 35t-35 10h-107v49h299v-1364q0 -25 10 -35t35 -10h107v-49h-451z" />
<glyph unicode="m" horiz-adv-x="1626" d="M78 0v49h86q25 0 35 10t10 35v746q0 25 -10 35t-35 10h-86v49h278v-180l9 -2q110 206 264 206q107 0 170 -53q62 -50 86 -172l8 -2q10 25 28.5 56t51.5 73t84 70t108 28q107 0 170 -53q50 -40 72.5 -112.5t22.5 -139.5v-559q0 -25 10 -35t35 -10h86v-49h-410v49h86 q25 0 35 10t10 35v600q0 40 -6.5 75.5t-21 68t-42 52t-65.5 19.5q-58 0 -116.5 -51.5t-98 -143t-39.5 -194.5v-426q0 -25 10 -35t35 -10h86v-49h-410v49h86q25 0 35 10t10 35v600q0 40 -6.5 75.5t-21 68t-42 52t-65.5 19.5q-58 0 -116.5 -51.5t-98 -143t-39.5 -194.5v-426 q0 -25 10 -35t35 -10h86v-49h-409z" />
<glyph unicode="n" horiz-adv-x="1105" d="M78 0v49h86q25 0 35 10t10 35v746q0 25 -10 35t-35 10h-86v49h278v-189l9 -2q54 103 128 159t156 56q103 0 166 -53q50 -40 72 -112t22 -140v-559q0 -25 10 -35t35 -10h86v-49h-409v49h86q25 0 35 10t10 35v600q0 41 -6 76t-19.5 68t-40.5 52t-65 19q-43 0 -91.5 -31 t-89 -82t-67.5 -125t-27 -151v-426q0 -25 10 -35t35 -10h86v-49h-409z" />
<glyph unicode="o" horiz-adv-x="1015" d="M98 467q0 203 119.5 347t290.5 144t290.5 -144t119.5 -347q0 -133 -54.5 -246t-149 -179.5t-206.5 -66.5t-206.5 66.5t-149 179.5t-54.5 246zM279 467q0 -442 229 -442t229 442t-229 442t-229 -442z" />
<glyph unicode="p" horiz-adv-x="1060" d="M57 -422h107q25 0 35 10t10 35v1217q0 25 -10 35t-35 10h-107v49h299v-131l13 -4q40 67 106.5 113t134.5 46q107 0 188.5 -67t123 -177.5t41.5 -246.5q0 -135 -43.5 -246.5t-126.5 -178.5t-191 -67q-68 0 -131.5 35t-103.5 82l-11 -6v-463q0 -25 10 -35t35 -10h107v-49 h-451v49zM356 346q0 -124 69 -222.5t181 -98.5q51 0 86.5 32.5t54.5 94.5t27 137.5t8 177.5t-8 177.5t-27 137.5t-54.5 94.5t-86.5 32.5q-96 0 -173 -115t-77 -257v-191z" />
<glyph unicode="q" horiz-adv-x="1028" d="M98 467q0 135 43.5 246.5t126.5 178t191 66.5q97 0 169 -65t109 -152l15 4l63 189h37v-1311q0 -25 10 -35t35 -10h107v-49h-451v49h106q25 0 35.5 10t10.5 35v463l-11 6q-40 -47 -103.5 -82t-131.5 -35q-108 0 -191 67t-126.5 178.5t-43.5 246.5zM279 467 q0 -100 8 -175.5t27 -138t54.5 -95.5t86.5 -33q112 0 181 98.5t69 222.5v223q0 77 -33 155.5t-91.5 131.5t-125.5 53q-51 0 -86.5 -33t-54.5 -95.5t-27 -138t-8 -175.5z" />
<glyph unicode="r" horiz-adv-x="839" d="M78 0v49h86q25 0 35 10t10 35v746q0 25 -10 35t-35 10h-86v49h278v-262l9 -2q43 109 92 180q33 48 83.5 78t102.5 30q78 0 117 -49.5t39 -117.5q0 -50 -28.5 -95t-86.5 -45q-39 0 -65.5 20t-26.5 58q0 28 15 52t40 38q16 9 30.5 25t14.5 30q0 35 -57 35q-18 0 -33.5 -3 t-41 -17t-48 -39.5t-50 -75.5t-52.5 -119q-23 -66 -38.5 -148t-15.5 -142v-271q0 -25 10 -35t35 -10h86v-49h-409z" />
<glyph unicode="s" horiz-adv-x="888" d="M106 707q0 124 78 187.5t197 63.5q110 0 199 -65q44 -33 67 -33q27 0 33 37l4 41h37v-311h-37l-29 71q-25 62 -61 106t-75 65.5t-73 30.5t-67 9q-76 0 -125 -38t-49 -105q0 -59 47.5 -97t132.5 -73l221 -92q98 -40 147.5 -99.5t49.5 -162.5q0 -137 -78 -202t-205 -65 q-53 0 -98.5 13.5t-66 26.5t-50.5 36q-2 1 -9 6.5t-9 7t-8.5 5.5t-9 5.5t-8 4t-9 3.5t-8 2t-8.5 1q-51 0 -68 -70l-8 -41h-37v406h37l76 -162q109 -194 286 -194q94 0 140.5 46t46.5 126q0 92 -131 145l-234 94q-111 45 -174.5 109t-63.5 162z" />
<glyph unicode="t" horiz-adv-x="716" d="M57 877v57h45q62 0 108.5 50.5t67.5 121.5t21 147v74h57v-393h254v-57h-254v-668q0 -143 109 -143q145 0 145 245h37q0 -32 -0.5 -53.5t-5 -60t-12.5 -65t-25 -59t-40 -52t-59.5 -33t-82.5 -13.5q-92 0 -152.5 66t-60.5 178v658h-152z" />
<glyph unicode="u" horiz-adv-x="1093" d="M66 885v49h278v-694q0 -41 6 -76t19.5 -68t40.5 -52t65 -19q43 0 91.5 31t89 82t67.5 125t27 151v426q0 25 -10 35t-35 10h-87v49h279v-840q0 -25 10 -35t35 -10h86v-49h-278v188l-9 2q-54 -103 -128 -159t-156 -56q-102 0 -166 54q-50 40 -72 112t-22 140v559 q0 25 -10 35t-35 10h-86z" />
<glyph unicode="v" horiz-adv-x="1085" d="M37 885v49h442v-49h-57q-25 0 -45.5 -13t-20.5 -36q0 -32 13 -68l229 -553l166 485q22 64 22 105q0 35 -20 57.5t-53 22.5h-49v49h372v-49h-47q-44 0 -82 -30t-59 -91l-270 -789h-37l-338 807q-15 35 -24.5 53t-31 34t-51.5 16h-59z" />
<glyph unicode="w" horiz-adv-x="1589" d="M37 885v49h442v-49h-57q-25 0 -45.5 -13t-20.5 -36q0 -32 13 -68l229 -553l150 477q4 10 4 51q0 11 -23 68q-33 74 -88 74h-47v49h442v-49h-82q-59 0 -59 -62q0 -28 10 -55l197 -553l166 485q22 64 22 105q0 80 -73 80h-50v49h373v-49h-47q-44 0 -82 -30t-59 -91 l-279 -789h-37l-245 672l-213 -672h-37l-330 789q-29 68 -52.5 94.5t-74.5 26.5h-47z" />
<glyph unicode="x" horiz-adv-x="1064" d="M70 0v49h53q34 0 65.5 20.5t45.5 39t38 53.5l187 278l-250 400q-15 24 -31.5 34.5t-50.5 10.5h-49v49h405v-49h-49q-41 0 -41 -41q0 -21 13 -43l141 -230l135 201q18 26 18 66q0 23 -15.5 35t-33.5 12h-49v49h356v-49h-51q-43 0 -75.5 -20t-65.5 -70l-186 -275l260 -418 q12 -20 20.5 -29.5t28 -16.5t51.5 -7h47v-49h-426v49h62q23 0 35 9.5t12 25.5q0 18 -15 43l-163 262l-140 -207q-30 -48 -30 -71q0 -62 51 -62h37v-49h-340z" />
<glyph unicode="y" horiz-adv-x="1085" d="M37 885v49h463v-49h-66q-25 0 -45 -13t-20 -36q0 -35 12 -68l213 -629l170 561q22 64 22 105q0 35 -20 57.5t-53 22.5h-49v49h372v-49h-47q-44 0 -82 -30t-59 -91l-330 -1049q-10 -33 -29.5 -66.5t-49 -65t-73 -51t-92.5 -19.5q-80 0 -131 51q-57 54 -57 129q0 57 33 86 q31 31 69 31q48 0 71.5 -30.5t23.5 -74.5q0 -23 -17 -57q-12 -20 -12 -39q0 -31 41 -31q62 0 104 47.5t62 114.5l55 178l-291 846q-24 66 -47 93.5t-74 27.5h-67z" />
<glyph unicode="z" horiz-adv-x="901" d="M82 0v53l532 832h-249q-127 0 -181 -103q-22 -44 -37 -96t-19 -82l-5 -31h-41l12 361h688v-66l-530 -819h260q126 0 180 103q22 44 37.5 96t20.5 82l4 30h41l-13 -360h-700z" />
<glyph unicode="{" horiz-adv-x="860" d="M213 528v37q45 0 73.5 2.5t58.5 11.5t47 26t27.5 47t10.5 73q0 63 -37 207t-37 219q0 244 308 344l24 -49q-52 -18 -81.5 -31.5t-63 -36t-49 -53.5t-15.5 -72q0 -73 37 -210.5t37 -211.5q0 -220 -193 -282v-4q81 -26 137 -96.5t56 -198.5q0 -74 -37 -205t-37 -205 q0 -41 15.5 -72t49.5 -53.5t63 -35.5t81 -31l-24 -49q-308 100 -308 344q0 76 37 212.5t37 200.5q0 43 -10.5 74t-28 50t-46 30t-59 14.5t-73.5 3.5z" />
<glyph unicode="|" horiz-adv-x="581" d="M246 -406v1901h90v-1901h-90z" />
<glyph unicode="}" horiz-adv-x="860" d="M172 -352q52 18 81 31t63 35.5t49.5 53.5t15.5 72q0 74 -37 211t-37 211q0 221 193 283v4q-193 62 -193 282q0 74 37 211.5t37 210.5q0 41 -15.5 72t-49 53.5t-63 36t-81.5 31.5l25 49q307 -99 307 -344q0 -75 -37 -219t-37 -207q0 -43 10.5 -73t27.5 -47t47 -26 t58.5 -11.5t73.5 -2.5v-37q-45 0 -73.5 -2.5t-58.5 -11.5t-47 -25.5t-27.5 -46.5t-10.5 -73q0 -64 37 -207.5t37 -218.5q0 -245 -307 -344z" />
<glyph unicode="~" horiz-adv-x="1351" d="M98 518q0 81 61.5 142t172.5 61q60 0 141 -22.5t134.5 -44t150.5 -64.5q88 -40 132 -58.5t107 -37.5t105 -19q33 0 57.5 26t24.5 68q0 77 -86 123l24 43q64 -29 97.5 -77t33.5 -107q0 -81 -61 -142t-172 -61q-88 0 -189.5 34.5t-236.5 96.5q-86 39 -132 58.5t-108.5 38 t-103.5 18.5q-33 0 -57.5 -26t-24.5 -68q0 -77 86 -123l-25 -43q-64 29 -97.5 77t-33.5 107z" />
<glyph unicode="&#xa1;" horiz-adv-x="573" d="M160 -340q0 100 31 282.5t38 262.5l33 409h49l33 -409q7 -81 38.5 -263.5t31.5 -281.5q0 -67 -35 -107t-92 -40t-92 40t-35 107zM160 831q0 55 36 91t91 36t91 -36t36 -91t-35.5 -90.5t-91.5 -35.5t-91.5 35.5t-35.5 90.5z" />
<glyph unicode="&#xa2;" d="M229 467q0 127 47 234.5t130.5 175.5t187.5 79v224h65v-224q65 -4 119 -30t88.5 -64t53 -82.5t18.5 -89.5q0 -64 -33 -99.5t-80 -35.5q-41 0 -68.5 26.5t-27.5 63.5t21 61t49 33q32 10 32 37q0 38 -44 81t-128 50v-882q61 4 107.5 31.5t74 72t42.5 91t22 99.5h49 q-4 -60 -22.5 -116.5t-52 -107.5t-90.5 -83.5t-130 -36.5v-221h-65v223q-173 20 -269 156t-96 334zM410 467q0 -70 8.5 -135t28 -130t57.5 -110.5t90 -60.5v874q-50 -12 -87.5 -57.5t-57.5 -110.5t-29.5 -132.5t-9.5 -137.5z" />
<glyph unicode="&#xa3;" horiz-adv-x="1474" d="M131 135q0 72 60 118t128 46q106 0 228 -59q18 81 18 202q0 153 -14 281q-106 18 -133 18q-54 0 -83.5 -10t-72.5 -35l-29 45q66 58 168 58q36 0 146 -21q-2 29 -2 103q0 114 36 217t96 176.5t142.5 116.5t171.5 43q66 0 119 -19.5t84.5 -48.5t52.5 -64.5t29 -65.5t8 -54 q0 -69 -31 -111.5t-92 -42.5q-42 0 -72 27t-30 69q0 67 51 93q26 14 36.5 25t10.5 34q0 39 -40 71.5t-126 32.5q-46 0 -90 -20t-83 -60t-63 -110.5t-24 -161.5v-283q85 -16 125 -16q53 0 85.5 11t70.5 34l28 -45q-57 -57 -168 -57q-35 0 -141 18v-133q0 -221 -98 -362 q77 -47 185 -72t204 -25q91 0 158.5 77.5t89.5 168.5l37 -14q-73 -367 -367 -367q-53 0 -125 27t-123 55t-121 72q-45 -52 -111.5 -97t-127.5 -45q-85 0 -143 39.5t-58 120.5zM188 135q0 -110 144 -110q50 0 100.5 38.5t81.5 98.5q-61 44 -107.5 66t-99.5 22q-51 0 -85 -34 t-34 -81z" />
<glyph unicode="&#xa4;" d="M106 279l138 137q-101 125 -101 284t103 287l-140 139l64 64l137 -137q126 102 287 102t287 -102l137 137l63 -64l-139 -139q102 -126 102 -287q0 -160 -100 -284l137 -137l-63 -64l-137 137q-126 -102 -287 -102t-287 102l-137 -137zM225 700q0 -160 104.5 -264 t264.5 -104t264.5 104t104.5 264t-105 266.5t-264 106.5t-264 -106.5t-105 -266.5z" />
<glyph unicode="&#xa5;" d="M29 1335v66h467v-66h-68q-55 0 -55 -35q0 -15 16 -51l248 -504l223 406q41 74 41 113q0 26 -16 48.5t-54 22.5h-86v66h410v-66h-45q-25 0 -48.5 -13.5t-45.5 -40t-35.5 -46.5t-32.5 -53l-280 -506h286v-66h-286v-123h286v-65h-286v-299q0 -30 13.5 -43.5t43.5 -13.5h152 v-66h-598v66h151q57 0 57 57v299h-286v65h286v123h-286v66h274l-285 579q-18 40 -37.5 60t-52.5 20h-71z" />
<glyph unicode="&#xa6;" horiz-adv-x="581" d="M246 -344v737h90v-737h-90zM246 758v737h90v-737h-90z" />
<glyph unicode="&#xa7;" horiz-adv-x="1310" d="M205 586q0 157 225 303q-123 110 -123 262q0 126 91 204.5t212 78.5q94 0 168 -60.5t74 -144.5q0 -53 -31 -84t-76 -31q-42 0 -72 26.5t-30 63.5q0 21 7.5 36.5t16 23.5t29.5 22q21 15 21 37q0 30 -29.5 45.5t-77.5 15.5q-74 0 -129 -42t-55 -117q0 -47 9 -83.5t31 -68.5 t41 -51.5t58 -54.5l262 -226q76 -63 106 -122.5t30 -155.5q0 -153 -226 -299q119 -126 119 -270q0 -126 -89.5 -200.5t-213.5 -74.5q-93 0 -167.5 61t-74.5 148q0 53 31.5 82t79.5 29q39 0 68.5 -26t29.5 -60q0 -32 -11.5 -50t-37.5 -34q-10 -6 -14 -9.5t-7.5 -11 t-3.5 -18.5q0 -29 31 -45.5t76 -16.5q73 0 128.5 43.5t55.5 116.5q0 80 -32 138.5t-103 119.5l-262 221q-69 63 -102 126t-33 153zM283 668q0 -112 86 -189l286 -241q28 -25 45 -45q66 37 125.5 90.5t59.5 97.5q0 120 -90 192l-287 246q-16 12 -41 41q-184 -114 -184 -192z " />
<glyph unicode="&#xa8;" horiz-adv-x="901" d="M152 1221q0 46 30 76t76 30t76.5 -30t30.5 -76t-30.5 -76.5t-76.5 -30.5t-76 30.5t-30 76.5zM537 1221q0 46 30 76t76 30t76.5 -30t30.5 -76t-30.5 -76.5t-76.5 -30.5t-76 30.5t-30 76.5z" />
<glyph unicode="&#xa9;" horiz-adv-x="1679" d="M98 729q0 125 36.5 241.5t104 211t158 165t205 109.5t238.5 39q207 0 377.5 -103t267 -278.5t96.5 -384.5t-96.5 -384.5t-267 -278.5t-377.5 -103q-124 0 -238.5 39t-205 109.5t-158 165t-104 211t-36.5 241.5zM156 729q0 -190 90 -353t247.5 -259.5t346.5 -96.5 t346.5 96.5t247.5 259.5t90 353t-90 353t-247.5 259.5t-346.5 96.5t-346.5 -96.5t-247.5 -259.5t-90 -353zM451 692q0 229 111.5 372.5t305.5 143.5q82 0 168 -67q20 -15 41 -15q18 0 31.5 22t13.5 48h37v-336h-37q-8 78 -50.5 149t-98.5 110.5t-105 39.5q-237 0 -237 -467 q0 -52 6.5 -105.5t23.5 -110.5t42 -101t67 -72.5t94 -28.5q53 0 96 18t71 47t48.5 69t31 79t15.5 82h50q-4 -61 -23.5 -119t-55.5 -110t-96.5 -83.5t-136.5 -31.5q-99 0 -180 41t-130.5 108.5t-76 149.5t-26.5 168z" />
<glyph unicode="&#xaa;" horiz-adv-x="778" d="M127 967q0 37 20 70.5t56 59t61.5 40t61.5 30.5l100 45v78q0 58 -29.5 82.5t-74.5 24.5q-44 0 -78.5 -18.5t-34.5 -45.5q0 -12 4 -18t16 -6q22 0 33.5 -15t11.5 -34q0 -25 -17.5 -38.5t-39.5 -13.5q-32 0 -55 18.5t-23 57.5q0 68 56 109t124 41q38 0 72 -8.5t65 -27.5 t49.5 -54.5t18.5 -83.5v-289q0 -76 47 -76q56 0 56 123h28q0 -174 -106 -174q-56 0 -87 29t-34 73l-4 2q-68 -104 -154 -104q-143 0 -143 123zM143 741v50h492v-50h-492zM242 979q0 -38 20.5 -57t46.5 -19q43 0 69.5 20.5t47.5 59.5v191l-80 -39q-104 -51 -104 -156z" />
<glyph unicode="&#xab;" horiz-adv-x="983" d="M221 467q0 92 40 178.5t90.5 140.5t107.5 91l30 -31q-74 -66 -113.5 -166.5t-39.5 -212.5t39.5 -212.5t113.5 -166.5l-30 -31q-57 37 -107.5 91t-90.5 140.5t-40 178.5zM543 467q0 66 18.5 129t48.5 110t57 79t54 55l29 -29q-109 -136 -109 -344t109 -344l-29 -29 q-27 23 -54 55t-57 79t-48.5 110t-18.5 129z" />
<glyph unicode="&#xac;" d="M98 668v82h992v-422h-91v340h-901z" />
<glyph unicode="&#xad;" horiz-adv-x="757" d="M123 459v114h512v-114h-512z" />
<glyph unicode="&#xae;" horiz-adv-x="1679" d="M98 729q0 125 36.5 241.5t104 211t158 165t205 109.5t238.5 39q207 0 377.5 -103t267 -278.5t96.5 -384.5t-96.5 -384.5t-267 -278.5t-377.5 -103q-124 0 -238.5 39t-205 109.5t-158 165t-104 211t-36.5 241.5zM156 729q0 -190 90 -353t247.5 -259.5t346.5 -96.5 t346.5 96.5t247.5 259.5t90 353t-90 353t-247.5 259.5t-346.5 96.5t-346.5 -96.5t-247.5 -259.5t-90 -353zM410 266v49h86q25 0 35 10t10 35v746q0 25 -10 35t-35 10h-86v49h467q129 0 214 -58t85 -167q0 -46 -18.5 -83.5t-43.5 -60t-58.5 -39.5t-56.5 -23.5t-45 -10.5v-8 q40 -8 71.5 -26t51.5 -44.5t33 -52t20 -59t10 -54t5 -47.5q2 -30 4 -47t7 -40t12 -35t19.5 -21t29.5 -9q27 0 45.5 21t26.5 53.5t11 59t3 51.5h36q0 -40 -5.5 -76.5t-21.5 -81.5t-54 -72.5t-93 -27.5q-64 0 -104 28q-76 55 -76 179v110q0 51 -13.5 87.5t-35.5 54t-43.5 25 t-44.5 7.5h-160v-373q0 -25 10 -35t35 -10h90v-49h-413zM688 782h158q68 0 108.5 47.5t40.5 133.5q0 188 -151 188h-111q-25 0 -35 -10t-10 -35v-324z" />
<glyph unicode="&#xaf;" horiz-adv-x="901" d="M184 1171v82h533v-82h-533z" />
<glyph unicode="&#xb0;" d="M315 1155q0 117 81 198t198 81t197.5 -81t80.5 -198t-80.5 -197.5t-197.5 -80.5t-198 80.5t-81 197.5zM381 1155q0 -92 60.5 -152.5t152.5 -60.5t152.5 60.5t60.5 152.5t-60.5 152.5t-152.5 60.5t-152.5 -60.5t-60.5 -152.5z" />
<glyph unicode="&#xb1;" horiz-adv-x="1925" d="M98 0h1712v-82h-1712v82zM98 692v82h820v561h90v-561h819v-82h-819v-561h-90v561h-820z" />
<glyph unicode="&#xb2;" horiz-adv-x="901" d="M168 1214q0 94 75.5 157t190.5 63q133 0 216 -64t83 -176q0 -129 -207 -266l-131 -88q-55 -38 -83.5 -66.5t-28.5 -56.5q0 -29 41 -29h249q56 0 75.5 14.5t29.5 53.5l18 73h29l-18 -256h-523q0 32 3 54.5t16 61t46.5 79.5t86.5 82l129 100q121 95 121 240q0 84 -49.5 139 t-139.5 55q-66 0 -115 -36.5t-49 -87.5q0 -30 14.5 -43.5t41.5 -18.5q76 -10 76 -74q0 -24 -18.5 -39.5t-51.5 -15.5q-55 0 -91 39.5t-36 105.5z" />
<glyph unicode="&#xb3;" horiz-adv-x="901" d="M221 729q0 44 29 75.5t74 31.5q39 0 61.5 -18.5t22.5 -51.5q0 -27 -17 -46.5t-45 -19.5q-51 0 -51 -20q0 -78 166 -78q98 0 140 57.5t42 141.5q0 99 -44.5 148.5t-111.5 49.5q-39 0 -79 -16q-24 -12 -56 -12q-20 0 -35.5 10.5t-15.5 30.5t15 30.5t36 10.5q28 0 58 -9 q29 -8 82 -8q64 0 97.5 51.5t33.5 120.5q0 79 -39 126.5t-117 47.5q-135 0 -135 -79q0 -26 33 -39q47 -17 47 -60q0 -26 -18.5 -42.5t-53.5 -16.5q-40 0 -69 30t-29 66q0 89 70 141t169 52q123 0 198 -59.5t75 -157.5q0 -75 -53.5 -126t-118.5 -65v-10q44 -7 90 -31.5 t82.5 -74t36.5 -109.5q0 -112 -96 -180t-234 -68q-105 0 -172.5 46.5t-67.5 129.5z" />
<glyph unicode="&#xb4;" horiz-adv-x="901" d="M399 1063l189 272q27 37 49.5 51.5t50.5 14.5q27 0 42 -17.5t15 -46.5q0 -47 -57 -90l-262 -207z" />
<glyph unicode="&#xb5;" horiz-adv-x="1241" d="M127 725q0 225 106 225q91 0 91 -180q0 -73 -56 -377q-17 -96 -22 -137q21 -82 89 -134t163 -52q59 0 107 18.5t75.5 45.5t46 60t25 58t6.5 43q0 47 -19 176q-22 151 -22 258q0 225 106 225q59 0 87 -65.5t28 -175.5q0 -106 -26 -271.5t-62 -259.5q24 -36 62.5 -56 t76.5 -20q63 0 101 40.5t49 93.5q45 -58 45 -113q0 -67 -35 -109.5t-98 -42.5q-129 0 -211 162l-15 -2q-37 -63 -106.5 -109t-177.5 -46q-111 0 -193.5 59t-124.5 143q-10 -65 -10 -121q0 -160 21.5 -246t64.5 -169q45 -85 45 -129q0 -45 -23 -70t-59 -25q-61 0 -94 65.5 t-33 137.5q0 112 25 352q20 190 20 293q-19 67 -36 192t-17 263z" />
<glyph unicode="&#xb6;" horiz-adv-x="1105" d="M131 1114q0 148 98 246t246 98h500v-69h-139v-1708h-78v1708h-205v-1708h-78v1110q-150 0 -247 88.5t-97 234.5z" />
<glyph unicode="&#xb7;" horiz-adv-x="573" d="M160 647q0 55 36 91t91 36t91 -36t36 -91t-36 -91t-91 -36t-91 36t-36 91z" />
<glyph unicode="&#xb8;" horiz-adv-x="901" d="M233 -360l25 32q63 -49 127 -49q55 0 91 26t36 79q0 54 -22 80t-68 36l-70 15l49 141h52l-37 -109l49 -10q74 -15 126 -56t52 -116q0 -62 -59.5 -102.5t-173.5 -40.5q-49 0 -99 23t-78 51z" />
<glyph unicode="&#xb9;" horiz-adv-x="917" d="M229 569v49h129q19 0 27 7t8 24v568h-164v57h82q71 0 113 42.5t55 96.5h45v-764q0 -17 8 -24t27 -7h129v-49h-459z" />
<glyph unicode="&#xba;" horiz-adv-x="778" d="M143 741v50h492v-50h-492zM143 1139q0 122 71 208.5t173 86.5q104 0 176 -86.5t72 -208.5t-72 -208.5t-176 -86.5q-102 0 -173 86.5t-71 208.5zM258 1139q0 -46 6 -88.5t20 -82.5t40.5 -63.5t62.5 -23.5q49 0 80.5 43t42 97t10.5 118q0 46 -6.5 88.5t-20.5 82t-41.5 63.5 t-64.5 24q-36 0 -62.5 -23.5t-40.5 -63.5t-20 -82.5t-6 -88.5z" />
<glyph unicode="&#xbb;" horiz-adv-x="983" d="M233 123q109 136 109 344t-109 344l29 29q27 -23 54 -55t57 -79t48.5 -110t18.5 -129t-18.5 -129t-48.5 -110t-57 -79t-54 -55zM494 88q74 66 113.5 166.5t39.5 212.5t-39.5 212.5t-113.5 166.5l30 31q57 -37 107.5 -91t90.5 -140.5t40 -178.5t-40 -178.5t-90.5 -140.5 t-107.5 -91z" />
<glyph unicode="&#xbc;" horiz-adv-x="1761" d="M229 569v49h129q19 0 27 7t8 24v568h-164v57h82q71 0 113 42.5t55 96.5h45v-764q0 -17 8 -24t27 -7h129v-49h-459zM426 -37l872 1475h74l-872 -1475h-74zM1012 242v57l340 541h106v-541h148v-57h-148v-166q0 -17 8 -24t27 -7h113v-49h-426v49h112q19 0 27 7t8 24v166 h-315zM1069 299h258v416z" />
<glyph unicode="&#xbd;" horiz-adv-x="1761" d="M229 569v49h129q19 0 27 7t8 24v568h-164v57h82q71 0 113 42.5t55 96.5h45v-764q0 -17 8 -24t27 -7h129v-49h-459zM426 -37l872 1475h74l-872 -1475h-74zM1028 641q0 94 75.5 156.5t190.5 62.5q133 0 216 -63.5t83 -175.5q0 -130 -207 -267l-131 -88q-55 -38 -83.5 -66.5 t-28.5 -56.5t41 -28h250q56 0 75 14t29 53l18 74h29l-18 -256h-523q0 32 3 54.5t16 60.5t46.5 79t86.5 82l129 101q121 95 121 239q0 84 -49.5 139.5t-139.5 55.5q-66 0 -114.5 -37t-48.5 -88q0 -30 14 -43t41 -18q76 -10 76 -74q0 -24 -18.5 -39.5t-51.5 -15.5 q-55 0 -91 39.5t-36 105.5z" />
<glyph unicode="&#xbe;" horiz-adv-x="1761" d="M221 729q0 44 29 75.5t74 31.5q39 0 61.5 -18.5t22.5 -51.5q0 -27 -17 -46.5t-45 -19.5q-51 0 -51 -20q0 -78 166 -78q98 0 140 57.5t42 141.5q0 99 -44.5 148.5t-111.5 49.5q-39 0 -79 -16q-24 -12 -56 -12q-20 0 -35.5 10.5t-15.5 30.5t15 30.5t36 10.5q28 0 58 -9 q29 -8 82 -8q64 0 97.5 51.5t33.5 120.5q0 79 -39 126.5t-117 47.5q-135 0 -135 -79q0 -26 33 -39q47 -17 47 -60q0 -26 -18.5 -42.5t-53.5 -16.5q-40 0 -69 30t-29 66q0 89 70 141t169 52q123 0 198 -59.5t75 -157.5q0 -75 -53.5 -126t-118.5 -65v-10q44 -7 90 -31.5 t82.5 -74t36.5 -109.5q0 -112 -96 -180t-234 -68q-105 0 -172.5 46.5t-67.5 129.5zM426 -37l872 1475h74l-872 -1475h-74zM1012 242v57l340 541h106v-541h148v-57h-148v-166q0 -17 8 -24t27 -7h113v-49h-426v49h112q19 0 27 7t8 24v166h-315zM1069 299h258v416z" />
<glyph unicode="&#xbf;" horiz-adv-x="962" d="M70 -176q0 52 19.5 101.5t44.5 85t72 77.5t78 65t87 62q182 126 182 244q0 52 -32 75t-83 23q-54 0 -88.5 -37t-34.5 -98q0 -31 11 -53l-37 -17q-23 37 -23 72q0 83 54.5 138.5t117.5 55.5q80 0 132.5 -42.5t52.5 -122.5q0 -61 -23 -103.5t-76 -99.5l-155 -168 q-61 -66 -90 -123.5t-29 -134.5q0 -108 58.5 -179t176.5 -71q95 0 167.5 49t72.5 111q0 47 -12 59q-10 8 -21 8q-14 0 -20 -2q-14 -4 -37 -4q-34 0 -54 23.5t-20 58.5q0 43 28.5 70.5t84.5 27.5q58 0 99.5 -48t41.5 -130q0 -81 -52 -147.5t-130.5 -101.5t-161.5 -35 q-167 0 -284 82.5t-117 228.5zM311 831q0 55 35.5 91t91.5 36t91.5 -36t35.5 -91t-35.5 -90.5t-91.5 -35.5t-91.5 35.5t-35.5 90.5z" />
<glyph unicode="&#xc0;" horiz-adv-x="1564" d="M94 0v66h76q37 0 66.5 13t49.5 37.5t32.5 46.5t23.5 52l440 1243h56l444 -1302q21 -51 50 -70.5t73 -19.5h115v-66h-635v66h135q30 0 51 15t21 36q0 24 -9 45l-92 268h-473l-47 -133q-29 -85 -29 -123q0 -42 24 -75t81 -33h108v-66h-561zM516 1858q0 28 15 45.5t42 17.5 q29 0 51.5 -14.5t49.5 -51.5l188 -272l-26 -22l-263 206q-57 43 -57 91zM545 504h420l-213 620z" />
<glyph unicode="&#xc1;" horiz-adv-x="1564" d="M94 0v66h76q37 0 66.5 13t49.5 37.5t32.5 46.5t23.5 52l440 1243h56l444 -1302q21 -51 50 -70.5t73 -19.5h115v-66h-635v66h135q30 0 51 15t21 36q0 24 -9 45l-92 268h-473l-47 -133q-29 -85 -29 -123q0 -42 24 -75t81 -33h108v-66h-561zM545 504h420l-213 620zM760 1583 l188 272q27 37 49.5 51.5t51.5 14.5q27 0 42 -17.5t15 -45.5q0 -48 -57 -91l-263 -206z" />
<glyph unicode="&#xc2;" horiz-adv-x="1564" d="M94 0v66h76q37 0 66.5 13t49.5 37.5t32.5 46.5t23.5 52l440 1243h56l444 -1302q21 -51 50 -70.5t73 -19.5h115v-66h-635v66h135q30 0 51 15t21 36q0 24 -9 45l-92 268h-473l-47 -133q-29 -85 -29 -123q0 -42 24 -75t81 -33h108v-66h-561zM487 1593q188 108 283 291h82 q95 -183 283 -291l-21 -32q-54 19 -147 79t-156 117q-63 -57 -156 -117t-147 -79zM545 504h420l-213 620z" />
<glyph unicode="&#xc3;" horiz-adv-x="1564" d="M94 0v66h76q37 0 66.5 13t49.5 37.5t32.5 46.5t23.5 52l440 1243h56l444 -1302q21 -51 50 -70.5t73 -19.5h115v-66h-635v66h135q30 0 51 15t21 36q0 24 -9 45l-92 268h-473l-47 -133q-29 -85 -29 -123q0 -42 24 -75t81 -33h108v-66h-561zM512 1659q0 80 42.5 136 t121.5 56q67 0 175.5 -41t156.5 -41q34 0 50 20.5t23 61.5h45q0 -80 -42 -136t-121 -56q-67 0 -175.5 41t-156.5 41q-34 0 -50.5 -21t-23.5 -61h-45zM545 504h420l-213 620z" />
<glyph unicode="&#xc4;" horiz-adv-x="1564" d="M94 0v66h76q37 0 66.5 13t49.5 37.5t32.5 46.5t23.5 52l440 1243h56l444 -1302q21 -51 50 -70.5t73 -19.5h115v-66h-635v66h135q30 0 51 15t21 36q0 24 -9 45l-92 268h-473l-47 -133q-29 -85 -29 -123q0 -42 24 -75t81 -33h108v-66h-561zM496 1741q0 46 30 76t76 30 t76.5 -30t30.5 -76t-30.5 -76.5t-76.5 -30.5t-76 30.5t-30 76.5zM545 504h420l-213 620zM913 1741q0 46 30.5 76t76.5 30t76 -30t30 -76t-30 -76.5t-76 -30.5t-76.5 30.5t-30.5 76.5z" />
<glyph unicode="&#xc5;" horiz-adv-x="1564" d="M94 0v66h76q37 0 66.5 13t49.5 37.5t32.5 46.5t23.5 52l440 1243h56l444 -1302q21 -51 50 -70.5t73 -19.5h115v-66h-635v66h135q30 0 51 15t21 36q0 24 -9 45l-92 268h-473l-47 -133q-29 -85 -29 -123q0 -42 24 -75t81 -33h108v-66h-561zM545 504h420l-213 620zM612 1745 q0 83 58 140t141 57t141 -57t58 -140t-58 -142t-141 -59t-141 59t-58 142zM662 1745q0 -65 42.5 -108.5t106.5 -43.5t107 43.5t43 108.5q0 64 -42.5 105.5t-107.5 41.5t-107 -41.5t-42 -105.5z" />
<glyph unicode="&#xc6;" horiz-adv-x="2056" d="M53 0v66h66q54 0 97.5 25t66 54t43.5 70l544 1030q35 65 35 105q0 23 -11.5 33t-39.5 10h-84v65h1143l8 -463h-51q0 17 -2.5 46t-24 103t-57.5 130q-78 119 -240 119h-329q-56 0 -56 -56v-559h180q38 0 67 12t47 35.5t29.5 49t16.5 61t6.5 62.5t1.5 63h54v-641h-54 q0 37 -1.5 64t-6.5 63t-16.5 61.5t-29.5 49t-47 35.5t-67 12h-180v-584q0 -55 56 -55h325q56 0 121.5 26t108.5 80q41 56 69.5 150.5t36.5 160.5l8 66h51l-24 -549h-1133v66h138q55 0 55 55v309h-445l-71 -133q-37 -72 -37 -123q0 -17 1 -29t6 -28t14 -26t26.5 -17.5 t42.5 -7.5h96v-66h-553zM567 504h406v766z" />
<glyph unicode="&#xc7;" horiz-adv-x="1372" d="M143 741q0 154 39.5 291t112 240t181.5 163t241 60q126 0 254 -94q27 -17 53 -39q33 -29 57 -29q16 0 23.5 9.5t17.5 35.5l35 101h51v-570h-51q-34 127 -85 227.5t-109.5 164t-121 96.5t-124.5 33q-73 0 -129 -21.5t-95 -65t-65 -100.5t-41 -138t-21 -167.5t-6 -196.5 q0 -133 10 -235.5t36.5 -195t70 -152.5t112.5 -94.5t161 -34.5q83 0 151.5 28.5t115 76.5t79.5 113.5t50 135.5t21 147h74q-2 -54 -12 -109.5t-31 -122.5t-58.5 -124.5t-89 -106t-129 -76.5t-171.5 -28h-23l-25 -74l54 -12q87 -20 136.5 -70.5t49.5 -121.5q0 -78 -67.5 -125 t-190.5 -47q-69 0 -124 30.5t-89 73.5l33 35q77 -74 151 -74q60 0 100 27t40 92q0 58 -25 88.5t-84 44.5l-63 14l41 125q-124 19 -225 92.5t-164.5 180.5t-97.5 235.5t-34 263.5z" />
<glyph unicode="&#xc8;" horiz-adv-x="1413" d="M127 0v66h147q56 0 56 55v1216q0 56 -56 56h-147v65h1143l8 -463h-51q0 17 -2.5 46t-24 103t-57.5 130q-78 119 -240 119h-330q-29 0 -42 -13.5t-13 -42.5v-559h180q38 0 67 12t47 35.5t29.5 49t16.5 61t6.5 62.5t1.5 63h54v-641h-54q0 37 -1.5 64t-6.5 63t-16.5 61.5 t-29.5 49t-47 35.5t-67 12h-180v-584q0 -55 55 -55h328q55 0 119.5 25t105.5 79q42 56 71 151t37 161l9 67h51l-24 -549h-1143zM459 1858q0 28 15 45.5t42 17.5q28 0 50.5 -14.5t49.5 -51.5l189 -272l-27 -22l-262 206q-57 43 -57 91z" />
<glyph unicode="&#xc9;" horiz-adv-x="1413" d="M127 0v66h147q56 0 56 55v1216q0 56 -56 56h-147v65h1143l8 -463h-51q0 17 -2.5 46t-24 103t-57.5 130q-78 119 -240 119h-330q-29 0 -42 -13.5t-13 -42.5v-559h180q38 0 67 12t47 35.5t29.5 49t16.5 61t6.5 62.5t1.5 63h54v-641h-54q0 37 -1.5 64t-6.5 63t-16.5 61.5 t-29.5 49t-47 35.5t-67 12h-180v-584q0 -55 55 -55h328q55 0 119.5 25t105.5 79q42 56 71 151t37 161l9 67h51l-24 -549h-1143zM702 1583l189 272q27 37 49.5 51.5t50.5 14.5q27 0 42.5 -17.5t15.5 -45.5q0 -47 -58 -91l-262 -206z" />
<glyph unicode="&#xca;" horiz-adv-x="1413" d="M127 0v66h147q56 0 56 55v1216q0 56 -56 56h-147v65h1143l8 -463h-51q0 17 -2.5 46t-24 103t-57.5 130q-78 119 -240 119h-330q-29 0 -42 -13.5t-13 -42.5v-559h180q38 0 67 12t47 35.5t29.5 49t16.5 61t6.5 62.5t1.5 63h54v-641h-54q0 37 -1.5 64t-6.5 63t-16.5 61.5 t-29.5 49t-47 35.5t-67 12h-180v-584q0 -55 55 -55h328q55 0 119.5 25t105.5 79q42 56 71 151t37 161l9 67h51l-24 -549h-1143zM430 1593q188 108 283 291h82q96 -184 282 -291l-20 -32q-54 19 -147 79t-156 117q-63 -57 -156 -117t-147 -79z" />
<glyph unicode="&#xcb;" horiz-adv-x="1413" d="M127 0v66h147q56 0 56 55v1216q0 56 -56 56h-147v65h1143l8 -463h-51q0 17 -2.5 46t-24 103t-57.5 130q-78 119 -240 119h-330q-29 0 -42 -13.5t-13 -42.5v-559h180q38 0 67 12t47 35.5t29.5 49t16.5 61t6.5 62.5t1.5 63h54v-641h-54q0 37 -1.5 64t-6.5 63t-16.5 61.5 t-29.5 49t-47 35.5t-67 12h-180v-584q0 -55 55 -55h328q55 0 119.5 25t105.5 79q42 56 71 151t37 161l9 67h51l-24 -549h-1143zM438 1741q0 46 30.5 76t76.5 30t76 -30t30 -76t-30 -76.5t-76 -30.5t-76.5 30.5t-30.5 76.5zM856 1741q0 46 30.5 76t76.5 30t76 -30t30 -76 t-30 -76.5t-76 -30.5t-76.5 30.5t-30.5 76.5z" />
<glyph unicode="&#xcc;" horiz-adv-x="806" d="M127 0v66h147q56 0 56 55v1216q0 56 -56 56h-147v65h594v-65h-148q-29 0 -42 -13.5t-13 -42.5v-1216q0 -55 55 -55h148v-66h-594zM131 1858q0 28 15 45.5t42 17.5q29 0 51.5 -14.5t49.5 -51.5l188 -272l-26 -22l-263 206q-57 43 -57 91z" />
<glyph unicode="&#xcd;" horiz-adv-x="806" d="M127 0v66h147q56 0 56 55v1216q0 56 -56 56h-147v65h594v-65h-148q-29 0 -42 -13.5t-13 -42.5v-1216q0 -55 55 -55h148v-66h-594zM375 1583l188 272q27 37 49.5 51.5t51.5 14.5q27 0 42 -17.5t15 -45.5q0 -48 -57 -91l-263 -206z" />
<glyph unicode="&#xce;" horiz-adv-x="806" d="M102 1593q188 108 283 291h82q95 -183 283 -291l-21 -32q-54 19 -147 79t-156 117q-63 -57 -156 -117t-147 -79zM127 0v66h147q56 0 56 55v1216q0 56 -56 56h-147v65h594v-65h-148q-29 0 -42 -13.5t-13 -42.5v-1216q0 -55 55 -55h148v-66h-594z" />
<glyph unicode="&#xcf;" horiz-adv-x="806" d="M111 1741q0 46 30 76t76 30t76.5 -30t30.5 -76t-30.5 -76.5t-76.5 -30.5t-76 30.5t-30 76.5zM127 0v66h147q56 0 56 55v1216q0 56 -56 56h-147v65h594v-65h-148q-29 0 -42 -13.5t-13 -42.5v-1216q0 -55 55 -55h148v-66h-594zM528 1741q0 46 30.5 76t76.5 30t76 -30 t30 -76t-30 -76.5t-76 -30.5t-76.5 30.5t-30.5 76.5z" />
<glyph unicode="&#xd0;" horiz-adv-x="1572" d="M127 0v66h147q56 0 56 55v608h-191v74h191v534q0 56 -56 56h-147v65h750q127 0 240 -52.5t196.5 -145.5t132.5 -228t49 -291q0 -209 -83.5 -379.5t-225 -266t-309.5 -95.5h-750zM518 121q0 -55 55 -55h295q88 0 159 39.5t117 104.5t77 153.5t44 182.5t13 195t-13 192.5 t-44 176.5t-77 147t-116.5 99t-159.5 37h-295q-29 0 -42 -13.5t-13 -42.5v-534h236v-74h-236v-608z" />
<glyph unicode="&#xd1;" horiz-adv-x="1576" d="M127 0v66h74q59 0 94 43.5t35 119.5v1108q-2 30 -14.5 43t-41.5 13h-147v65h387l711 -1143v914q0 76 -34.5 120t-92.5 44h-74v65h487v-65h-73q-58 0 -94.5 -44.5t-36.5 -119.5v-1266h-82l-805 1272h-8v-1006q0 -75 35.5 -119t93.5 -44h73v-66h-487zM553 1659 q0 80 42.5 136t121.5 56q67 0 175.5 -41t156.5 -41q34 0 50 20.5t23 61.5h45q0 -80 -42 -136t-121 -56q-67 0 -175.5 41t-156.5 41q-34 0 -50.5 -21t-23.5 -61h-45z" />
<glyph unicode="&#xd2;" horiz-adv-x="1433" d="M143 729q0 145 43.5 283t119.5 245t189 172.5t242 65.5t242 -65.5t189 -172.5t119.5 -245t43.5 -283t-43.5 -283t-119.5 -245t-189 -172.5t-242 -65.5t-242 65.5t-189 172.5t-119.5 245t-43.5 283zM360 729q0 -163 19.5 -287t62.5 -219t117 -144.5t178 -49.5t178 49.5 t117 144.5t62.5 219t19.5 287t-19.5 287t-62.5 219t-117 145t-178 50t-178 -50t-117 -145t-62.5 -219t-19.5 -287zM442 1858q0 28 15.5 45.5t42.5 17.5q28 0 50.5 -14.5t49.5 -51.5l188 -272l-26 -22l-262 206q-58 44 -58 91z" />
<glyph unicode="&#xd3;" horiz-adv-x="1433" d="M143 729q0 145 43.5 283t119.5 245t189 172.5t242 65.5t242 -65.5t189 -172.5t119.5 -245t43.5 -283t-43.5 -283t-119.5 -245t-189 -172.5t-242 -65.5t-242 65.5t-189 172.5t-119.5 245t-43.5 283zM360 729q0 -163 19.5 -287t62.5 -219t117 -144.5t178 -49.5t178 49.5 t117 144.5t62.5 219t19.5 287t-19.5 287t-62.5 219t-117 145t-178 50t-178 -50t-117 -145t-62.5 -219t-19.5 -287zM686 1583l188 272q27 37 49.5 51.5t51.5 14.5q27 0 42 -17.5t15 -45.5q0 -48 -57 -91l-262 -206z" />
<glyph unicode="&#xd4;" horiz-adv-x="1433" d="M143 729q0 145 43.5 283t119.5 245t189 172.5t242 65.5t242 -65.5t189 -172.5t119.5 -245t43.5 -283t-43.5 -283t-119.5 -245t-189 -172.5t-242 -65.5t-242 65.5t-189 172.5t-119.5 245t-43.5 283zM360 729q0 -163 19.5 -287t62.5 -219t117 -144.5t178 -49.5t178 49.5 t117 144.5t62.5 219t19.5 287t-19.5 287t-62.5 219t-117 145t-178 50t-178 -50t-117 -145t-62.5 -219t-19.5 -287zM414 1593q186 107 282 291h82q95 -183 283 -291l-21 -32q-54 19 -147 79t-156 117q-63 -57 -156 -117t-147 -79z" />
<glyph unicode="&#xd5;" horiz-adv-x="1433" d="M143 729q0 145 43.5 283t119.5 245t189 172.5t242 65.5t242 -65.5t189 -172.5t119.5 -245t43.5 -283t-43.5 -283t-119.5 -245t-189 -172.5t-242 -65.5t-242 65.5t-189 172.5t-119.5 245t-43.5 283zM360 729q0 -163 19.5 -287t62.5 -219t117 -144.5t178 -49.5t178 49.5 t117 144.5t62.5 219t19.5 287t-19.5 287t-62.5 219t-117 145t-178 50t-178 -50t-117 -145t-62.5 -219t-19.5 -287zM438 1659q0 80 42.5 136t121.5 56q67 0 175.5 -41t156.5 -41q34 0 50.5 21t23.5 61h45q0 -80 -42.5 -136t-121.5 -56q-67 0 -175.5 41t-156.5 41 q-34 0 -50.5 -21t-23.5 -61h-45z" />
<glyph unicode="&#xd6;" horiz-adv-x="1433" d="M143 729q0 145 43.5 283t119.5 245t189 172.5t242 65.5t242 -65.5t189 -172.5t119.5 -245t43.5 -283t-43.5 -283t-119.5 -245t-189 -172.5t-242 -65.5t-242 65.5t-189 172.5t-119.5 245t-43.5 283zM360 729q0 -163 19.5 -287t62.5 -219t117 -144.5t178 -49.5t178 49.5 t117 144.5t62.5 219t19.5 287t-19.5 287t-62.5 219t-117 145t-178 50t-178 -50t-117 -145t-62.5 -219t-19.5 -287zM422 1741q0 46 30 76t76 30t76.5 -30t30.5 -76t-30.5 -76.5t-76.5 -30.5t-76 30.5t-30 76.5zM840 1741q0 46 30 76t76 30t76.5 -30t30.5 -76t-30.5 -76.5 t-76.5 -30.5t-76 30.5t-30 76.5z" />
<glyph unicode="&#xd7;" horiz-adv-x="1925" d="M319 -37l580 578l-580 577l66 66l578 -580l577 580l66 -66l-580 -577l580 -578l-66 -65l-577 579l-578 -579z" />
<glyph unicode="&#xd8;" horiz-adv-x="1433" d="M143 12l154 203q-73 106 -113.5 240t-40.5 274q0 195 72.5 369t210.5 285.5t311 111.5q223 0 387 -182l138 182l65 -49l-151 -201q75 -105 115 -239.5t40 -276.5q0 -145 -43.5 -283t-119.5 -245t-189 -172.5t-242 -65.5q-226 0 -389 184l-139 -184zM360 729 q0 -222 37 -379l647 856q-91 224 -307 224q-104 0 -178 -50t-117 -145t-62.5 -219t-19.5 -287zM428 254q91 -225 309 -225q104 0 178 49.5t117 144.5t62.5 219t19.5 287q0 230 -39 383z" />
<glyph unicode="&#xd9;" horiz-adv-x="1646" d="M127 1393v65h596v-65h-150q-29 0 -42 -13.5t-13 -42.5v-907q0 -190 91.5 -295.5t258.5 -105.5q97 0 176 31t129 84t76.5 120t26.5 142v821q0 75 -36.5 120.5t-94.5 45.5h-72v65h488v-65h-72q-58 0 -94.5 -45.5t-36.5 -120.5v-801q0 -96 -33.5 -180.5t-95 -147t-155 -99 t-206.5 -36.5t-205 29t-153 78.5t-102.5 117t-59.5 141.5t-18 156v852q0 56 -56 56h-147zM569 1858q0 28 15.5 45.5t42.5 17.5q28 0 50.5 -14.5t49.5 -51.5l188 -272l-26 -22l-262 206q-58 44 -58 91z" />
<glyph unicode="&#xda;" horiz-adv-x="1646" d="M127 1393v65h596v-65h-150q-29 0 -42 -13.5t-13 -42.5v-907q0 -190 91.5 -295.5t258.5 -105.5q97 0 176 31t129 84t76.5 120t26.5 142v821q0 75 -36.5 120.5t-94.5 45.5h-72v65h488v-65h-72q-58 0 -94.5 -45.5t-36.5 -120.5v-801q0 -96 -33.5 -180.5t-95 -147t-155 -99 t-206.5 -36.5t-205 29t-153 78.5t-102.5 117t-59.5 141.5t-18 156v852q0 56 -56 56h-147zM813 1583l188 272q27 37 49.5 51.5t51.5 14.5q27 0 42 -17.5t15 -45.5q0 -48 -57 -91l-262 -206z" />
<glyph unicode="&#xdb;" horiz-adv-x="1646" d="M127 1393v65h596v-65h-150q-29 0 -42 -13.5t-13 -42.5v-907q0 -190 91.5 -295.5t258.5 -105.5q97 0 176 31t129 84t76.5 120t26.5 142v821q0 75 -36.5 120.5t-94.5 45.5h-72v65h488v-65h-72q-58 0 -94.5 -45.5t-36.5 -120.5v-801q0 -96 -33.5 -180.5t-95 -147t-155 -99 t-206.5 -36.5t-205 29t-153 78.5t-102.5 117t-59.5 141.5t-18 156v852q0 56 -56 56h-147zM541 1593q186 107 282 291h82q95 -183 283 -291l-21 -32q-54 19 -147 79t-156 117q-63 -57 -156 -117t-147 -79z" />
<glyph unicode="&#xdc;" horiz-adv-x="1646" d="M127 1393v65h596v-65h-150q-29 0 -42 -13.5t-13 -42.5v-907q0 -190 91.5 -295.5t258.5 -105.5q97 0 176 31t129 84t76.5 120t26.5 142v821q0 75 -36.5 120.5t-94.5 45.5h-72v65h488v-65h-72q-58 0 -94.5 -45.5t-36.5 -120.5v-801q0 -96 -33.5 -180.5t-95 -147t-155 -99 t-206.5 -36.5t-205 29t-153 78.5t-102.5 117t-59.5 141.5t-18 156v852q0 56 -56 56h-147zM549 1741q0 46 30 76t76 30t76.5 -30t30.5 -76t-30.5 -76.5t-76.5 -30.5t-76 30.5t-30 76.5zM967 1741q0 46 30 76t76 30t76.5 -30t30.5 -76t-30.5 -76.5t-76.5 -30.5t-76 30.5 t-30 76.5z" />
<glyph unicode="&#xdd;" horiz-adv-x="1490" d="M86 1393v65h635v-65h-123q-31 0 -51.5 -15t-20.5 -37q0 -30 11 -45l323 -546l209 401q10 15 22.5 57.5t12.5 67.5q0 48 -28 82.5t-85 34.5h-61v65h508v-65h-60q-35 0 -64.5 -13t-53 -39t-37 -45.5t-31.5 -52.5l-293 -557v-565q0 -55 55 -55h197v-66h-692v66h196 q56 0 56 55v530l-398 652q-32 53 -56 71.5t-64 18.5h-107zM752 1583l188 272q27 37 49.5 51.5t50.5 14.5q27 0 42.5 -17.5t15.5 -45.5q0 -47 -58 -91l-262 -206z" />
<glyph unicode="&#xde;" horiz-adv-x="1392" d="M127 0v66h147q56 0 56 55v1216q0 56 -56 56h-147v65h627v-65h-181q-29 0 -42 -13.5t-13 -42.5v-137h293q218 0 355 -106t137 -275q0 -170 -137.5 -279.5t-354.5 -109.5h-293v-309q0 -55 55 -55h181v-66h-627zM518 496h320q111 0 179 95t68 228q0 132 -67.5 224t-179.5 92 h-265q-29 0 -42 -13.5t-13 -42.5v-583z" />
<glyph unicode="&#xdf;" horiz-adv-x="1077" d="M57 0v49h107q25 0 35 10t10 35v948q0 107 34.5 191.5t90.5 134.5t121.5 76t134.5 26q145 0 230 -75t85 -197q0 -64 -28.5 -120t-74.5 -94t-94 -62.5t-96 -36.5v-8q52 -15 100 -40.5t98 -68.5t86.5 -98t59.5 -134t23 -171q0 -177 -97.5 -283.5t-242.5 -106.5 q-94 0 -159.5 55.5t-65.5 141.5q0 58 31 90.5t75 32.5q48 0 69 -24.5t21 -61.5q0 -48 -61 -78q-25 -14 -25 -33q0 -35 34 -54t83 -19t82.5 28.5t54.5 106t21 205.5q0 139 -29.5 247.5t-91 174t-146.5 65.5h-77v57h77q58 0 102 25t68.5 66.5t36 89t11.5 98.5q0 233 -170 233 q-89 0 -156.5 -87t-67.5 -253v-1081h-299z" />
<glyph unicode="&#xe0;" horiz-adv-x="1024" d="M94 217q0 47 13 86t31 66t50 49.5t57.5 35.5t67.5 25.5t65 17.5t64 13l189 35v174q0 190 -191 190q-70 0 -127 -35.5t-57 -80.5q0 -21 6 -31q9 -17 31 -21q38 -10 57 -28t19 -51q0 -42 -25.5 -61t-64.5 -19q-45 0 -82 35t-37 100q0 112 87 176.5t199 64.5q62 0 118 -15.5 t105.5 -47.5t79 -90.5t29.5 -136.5v-504q0 -103 64 -103q35 0 57.5 31.5t30.5 75t8 98.5h37q0 -291 -164 -291q-88 0 -132.5 52t-47.5 145l-10 4q-13 -31 -35.5 -63t-54.5 -64.5t-77.5 -53t-93.5 -20.5q-49 0 -91 10t-84 35t-66.5 75t-24.5 122zM172 1337q0 29 15 46.5 t42 17.5q29 0 51.5 -14.5t49.5 -51.5l188 -272l-26 -23l-263 207q-57 43 -57 90zM266 211q0 -50 12.5 -85t34 -50.5t40.5 -21t40 -5.5q40 0 75 18.5t58 42.5t45.5 64t33.5 66.5t26 66.5v195l-178 -39q-99 -22 -143 -82t-44 -170z" />
<glyph unicode="&#xe1;" horiz-adv-x="1024" d="M94 217q0 47 13 86t31 66t50 49.5t57.5 35.5t67.5 25.5t65 17.5t64 13l189 35v174q0 190 -191 190q-70 0 -127 -35.5t-57 -80.5q0 -21 6 -31q9 -17 31 -21q38 -10 57 -28t19 -51q0 -42 -25.5 -61t-64.5 -19q-45 0 -82 35t-37 100q0 112 87 176.5t199 64.5q62 0 118 -15.5 t105.5 -47.5t79 -90.5t29.5 -136.5v-504q0 -103 64 -103q35 0 57.5 31.5t30.5 75t8 98.5h37q0 -291 -164 -291q-88 0 -132.5 52t-47.5 145l-10 4q-13 -31 -35.5 -63t-54.5 -64.5t-77.5 -53t-93.5 -20.5q-49 0 -91 10t-84 35t-66.5 75t-24.5 122zM266 211q0 -50 12.5 -85 t34 -50.5t40.5 -21t40 -5.5q40 0 75 18.5t58 42.5t45.5 64t33.5 66.5t26 66.5v195l-178 -39q-99 -22 -143 -82t-44 -170zM416 1063l188 272q27 37 49.5 51.5t51.5 14.5q27 0 42 -17.5t15 -46.5q0 -47 -57 -90l-263 -207z" />
<glyph unicode="&#xe2;" horiz-adv-x="1024" d="M94 217q0 47 13 86t31 66t50 49.5t57.5 35.5t67.5 25.5t65 17.5t64 13l189 35v174q0 190 -191 190q-70 0 -127 -35.5t-57 -80.5q0 -21 6 -31q9 -17 31 -21q38 -10 57 -28t19 -51q0 -42 -25.5 -61t-64.5 -19q-45 0 -82 35t-37 100q0 112 87 176.5t199 64.5q62 0 118 -15.5 t105.5 -47.5t79 -90.5t29.5 -136.5v-504q0 -103 64 -103q35 0 57.5 31.5t30.5 75t8 98.5h37q0 -291 -164 -291q-88 0 -132.5 52t-47.5 145l-10 4q-13 -31 -35.5 -63t-54.5 -64.5t-77.5 -53t-93.5 -20.5q-49 0 -91 10t-84 35t-66.5 75t-24.5 122zM199 1067q153 98 227 309h82 q74 -211 227 -309l-18 -27q-139 70 -250 189q-111 -119 -250 -189zM266 211q0 -50 12.5 -85t34 -50.5t40.5 -21t40 -5.5q40 0 75 18.5t58 42.5t45.5 64t33.5 66.5t26 66.5v195l-178 -39q-99 -22 -143 -82t-44 -170z" />
<glyph unicode="&#xe3;" horiz-adv-x="1024" d="M94 217q0 47 13 86t31 66t50 49.5t57.5 35.5t67.5 25.5t65 17.5t64 13l189 35v174q0 190 -191 190q-70 0 -127 -35.5t-57 -80.5q0 -21 6 -31q9 -17 31 -21q38 -10 57 -28t19 -51q0 -42 -25.5 -61t-64.5 -19q-45 0 -82 35t-37 100q0 112 87 176.5t199 64.5q62 0 118 -15.5 t105.5 -47.5t79 -90.5t29.5 -136.5v-504q0 -103 64 -103q35 0 57.5 31.5t30.5 75t8 98.5h37q0 -291 -164 -291q-88 0 -132.5 52t-47.5 145l-10 4q-13 -31 -35.5 -63t-54.5 -64.5t-77.5 -53t-93.5 -20.5q-49 0 -91 10t-84 35t-66.5 75t-24.5 122zM184 1139q0 80 42.5 136 t121.5 56q54 0 103 -20.5t93.5 -41t86.5 -20.5q34 0 50.5 21t23.5 61h45q0 -80 -42.5 -136t-121.5 -56q-54 0 -103 20.5t-93.5 41t-86.5 20.5q-34 0 -50.5 -21t-23.5 -61h-45zM266 211q0 -50 12.5 -85t34 -50.5t40.5 -21t40 -5.5q40 0 75 18.5t58 42.5t45.5 64t33.5 66.5 t26 66.5v195l-178 -39q-99 -22 -143 -82t-44 -170z" />
<glyph unicode="&#xe4;" horiz-adv-x="1024" d="M94 217q0 47 13 86t31 66t50 49.5t57.5 35.5t67.5 25.5t65 17.5t64 13l189 35v174q0 190 -191 190q-70 0 -127 -35.5t-57 -80.5q0 -21 6 -31q9 -17 31 -21q38 -10 57 -28t19 -51q0 -42 -25.5 -61t-64.5 -19q-45 0 -82 35t-37 100q0 112 87 176.5t199 64.5q62 0 118 -15.5 t105.5 -47.5t79 -90.5t29.5 -136.5v-504q0 -103 64 -103q35 0 57.5 31.5t30.5 75t8 98.5h37q0 -291 -164 -291q-88 0 -132.5 52t-47.5 145l-10 4q-13 -31 -35.5 -63t-54.5 -64.5t-77.5 -53t-93.5 -20.5q-49 0 -91 10t-84 35t-66.5 75t-24.5 122zM168 1221q0 46 30 76t76 30 t76.5 -30t30.5 -76t-30.5 -76.5t-76.5 -30.5t-76 30.5t-30 76.5zM266 211q0 -50 12.5 -85t34 -50.5t40.5 -21t40 -5.5q40 0 75 18.5t58 42.5t45.5 64t33.5 66.5t26 66.5v195l-178 -39q-99 -22 -143 -82t-44 -170zM553 1221q0 46 30 76t76 30t76.5 -30t30.5 -76t-30.5 -76.5 t-76.5 -30.5t-76 30.5t-30 76.5z" />
<glyph unicode="&#xe5;" horiz-adv-x="1024" d="M94 217q0 47 13 86t31 66t50 49.5t57.5 35.5t67.5 25.5t65 17.5t64 13l189 35v174q0 190 -191 190q-70 0 -127 -35.5t-57 -80.5q0 -21 6 -31q9 -17 31 -21q38 -10 57 -28t19 -51q0 -42 -25.5 -61t-64.5 -19q-45 0 -82 35t-37 100q0 112 87 176.5t199 64.5q62 0 118 -15.5 t105.5 -47.5t79 -90.5t29.5 -136.5v-504q0 -103 64 -103q35 0 57.5 31.5t30.5 75t8 98.5h37q0 -291 -164 -291q-88 0 -132.5 52t-47.5 145l-10 4q-13 -31 -35.5 -63t-54.5 -64.5t-77.5 -53t-93.5 -20.5q-49 0 -91 10t-84 35t-66.5 75t-24.5 122zM266 211q0 -50 12.5 -85 t34 -50.5t40.5 -21t40 -5.5q40 0 75 18.5t58 42.5t45.5 64t33.5 66.5t26 66.5v195l-178 -39q-99 -22 -143 -82t-44 -170zM268 1225q0 83 57.5 139.5t141.5 56.5t141.5 -56.5t57.5 -139.5t-58 -142t-141 -59t-141 59t-58 142zM317 1225q0 -65 43 -108.5t107 -43.5t106.5 43.5 t42.5 108.5q0 64 -42 105.5t-107 41.5t-107.5 -41.5t-42.5 -105.5z" />
<glyph unicode="&#xe6;" horiz-adv-x="1441" d="M94 217q0 46 13 85t31 66t50 49.5t58 36t67 26t65 17.5t64 13l189 35v174q0 190 -191 190q-70 0 -127 -35.5t-57 -80.5q0 -21 6 -31q9 -17 31 -21q38 -10 57 -28t19 -51q0 -42 -25.5 -61t-64.5 -19q-45 0 -82 35t-37 100q0 112 87 176.5t199 64.5q106 0 178 -36.5 t105 -85.5q59 66 119 94t135 28q91 0 162.5 -46t113 -121t63 -160t21.5 -172h-565q0 -79 6 -141.5t22 -119t42 -93.5t67.5 -58.5t96.5 -21.5q41 0 79 12.5t77 43t67.5 91.5t38.5 147h49q-11 -151 -91.5 -247.5t-223.5 -96.5q-251 0 -363 248q-35 -103 -111.5 -175.5 t-173.5 -72.5q-49 0 -91 10t-84 35t-66.5 75t-24.5 122zM266 211q0 -50 12.5 -85t34 -50.5t40.5 -21t40 -5.5q29 0 55 9.5t46 23.5t39 37.5t32 43.5t27 49.5t21.5 48.5t17.5 46v195l-178 -39q-99 -22 -143 -82t-44 -170zM778 516h389q0 73 -10 138.5t-30.5 124.5t-59.5 94.5 t-92 35.5t-92.5 -35.5t-61.5 -94.5t-32.5 -125t-10.5 -138z" />
<glyph unicode="&#xe7;" horiz-adv-x="892" d="M98 467q0 135 50 246.5t142.5 178t209.5 66.5q72 0 131.5 -24.5t97 -63.5t58 -86t20.5 -94q0 -64 -33 -99.5t-80 -35.5q-41 0 -68.5 26.5t-27.5 63.5t21 61t49 33q32 10 32 37q0 17 -11 38.5t-33 43.5t-63 36.5t-93 14.5q-55 0 -94.5 -21.5t-63.5 -58t-38.5 -94.5 t-19.5 -120.5t-5 -147.5t5 -147.5t19 -120.5t38 -94.5t64 -58t95 -21.5q65 0 116.5 26.5t83 71t50 93.5t24.5 103h49q-4 -60 -26 -119t-59.5 -110t-96.5 -83t-129 -32h-25l-26 -84l49 -10q74 -15 126 -56t52 -116q0 -62 -59.5 -102.5t-173.5 -40.5q-49 0 -98.5 23t-77.5 51 l24 32q63 -49 127 -49q55 0 91 26t36 79q0 54 -22 80t-68 36l-70 15l41 123q-102 14 -180 83t-119 174t-41 228z" />
<glyph unicode="&#xe8;" horiz-adv-x="942" d="M98 467q0 126 46.5 237.5t136.5 182.5t202 71q73 0 134.5 -31t102.5 -81t69.5 -116t41.5 -134.5t13 -136.5h-565q0 -100 10.5 -174t35.5 -135.5t72 -93t115 -31.5q41 0 79 12.5t77 43t67.5 91.5t38.5 147h49q-11 -151 -91.5 -247.5t-223.5 -96.5q-186 0 -298 137 t-112 355zM197 1337q0 29 15 46.5t42 17.5q28 0 50.5 -14.5t49.5 -51.5l189 -272l-27 -23l-262 207q-57 43 -57 90zM279 516h389q0 72 -10 138t-31 125t-60 94.5t-92 35.5t-92.5 -35.5t-61 -94.5t-32 -125t-10.5 -138z" />
<glyph unicode="&#xe9;" horiz-adv-x="942" d="M98 467q0 126 46.5 237.5t136.5 182.5t202 71q73 0 134.5 -31t102.5 -81t69.5 -116t41.5 -134.5t13 -136.5h-565q0 -100 10.5 -174t35.5 -135.5t72 -93t115 -31.5q41 0 79 12.5t77 43t67.5 91.5t38.5 147h49q-11 -151 -91.5 -247.5t-223.5 -96.5q-186 0 -298 137 t-112 355zM279 516h389q0 72 -10 138t-31 125t-60 94.5t-92 35.5t-92.5 -35.5t-61 -94.5t-32 -125t-10.5 -138zM440 1063l189 272q27 37 49.5 51.5t50.5 14.5q27 0 42 -17.5t15 -46.5q0 -47 -57 -90l-262 -207z" />
<glyph unicode="&#xea;" horiz-adv-x="942" d="M98 467q0 126 46.5 237.5t136.5 182.5t202 71q73 0 134.5 -31t102.5 -81t69.5 -116t41.5 -134.5t13 -136.5h-565q0 -100 10.5 -174t35.5 -135.5t72 -93t115 -31.5q41 0 79 12.5t77 43t67.5 91.5t38.5 147h49q-11 -151 -91.5 -247.5t-223.5 -96.5q-186 0 -298 137 t-112 355zM223 1067q154 98 228 309h81q74 -211 228 -309l-19 -27q-137 69 -249 189q-111 -119 -250 -189zM279 516h389q0 72 -10 138t-31 125t-60 94.5t-92 35.5t-92.5 -35.5t-61 -94.5t-32 -125t-10.5 -138z" />
<glyph unicode="&#xeb;" horiz-adv-x="942" d="M98 467q0 126 46.5 237.5t136.5 182.5t202 71q73 0 134.5 -31t102.5 -81t69.5 -116t41.5 -134.5t13 -136.5h-565q0 -100 10.5 -174t35.5 -135.5t72 -93t115 -31.5q41 0 79 12.5t77 43t67.5 91.5t38.5 147h49q-11 -151 -91.5 -247.5t-223.5 -96.5q-186 0 -298 137 t-112 355zM193 1221q0 46 30 76t76 30t76.5 -30t30.5 -76t-30.5 -76.5t-76.5 -30.5t-76 30.5t-30 76.5zM279 516h389q0 72 -10 138t-31 125t-60 94.5t-92 35.5t-92.5 -35.5t-61 -94.5t-32 -125t-10.5 -138zM578 1221q0 46 30 76t76 30t76.5 -30t30.5 -76t-30.5 -76.5 t-76.5 -30.5t-76 30.5t-30 76.5z" />
<glyph unicode="&#xec;" horiz-adv-x="552" d="M-25 1337q0 28 15.5 46t42.5 18q28 0 50.5 -14.5t49.5 -51.5l189 -272l-27 -23l-262 207q-58 44 -58 90zM78 0v49h86q25 0 35 10t10 35v746q0 25 -10 35t-35 10h-86v49h278v-840q0 -25 10 -35t35 -10h86v-49h-409z" />
<glyph unicode="&#xed;" horiz-adv-x="552" d="M78 0v49h86q25 0 35 10t10 35v746q0 25 -10 35t-35 10h-86v49h278v-840q0 -25 10 -35t35 -10h86v-49h-409zM219 1063l189 272q27 37 49.5 51.5t50.5 14.5q27 0 42 -17.5t15 -46.5q0 -47 -57 -90l-262 -207z" />
<glyph unicode="&#xee;" horiz-adv-x="577" d="M14 1067q154 98 228 309h82q74 -211 227 -309l-19 -27q-137 69 -249 189q-111 -119 -250 -189zM90 0v49h86q25 0 35 10t10 35v746q0 25 -10 35t-35 10h-86v49h279v-840q0 -25 10 -35t35 -10h86v-49h-410z" />
<glyph unicode="&#xef;" horiz-adv-x="577" d="M20 1221q0 46 30.5 76t76.5 30t76 -30t30 -76t-30 -76.5t-76 -30.5t-76.5 30.5t-30.5 76.5zM102 0v49h86q25 0 35 10t10 35v746q0 25 -10 35t-35 10h-86v49h279v-840q0 -25 10 -35t35 -10h86v-49h-410zM352 1221q0 46 30.5 76t76.5 30t76 -30t30 -76t-30 -76.5t-76 -30.5 t-76.5 30.5t-30.5 76.5z" />
<glyph unicode="&#xf0;" horiz-adv-x="1024" d="M98 467q0 203 119.5 347t290.5 144q66 0 129 -24l6 8q-50 91 -172 246l-221 -137l-31 47l213 133q-87 111 -211 227h197q52 -47 137 -151l221 139l31 -47l-215 -135q74 -92 137 -189q189 -293 189 -547q0 -259 -118 -406t-292 -147q-112 0 -206.5 66.5t-149 179.5 t-54.5 246zM279 467q0 -442 229 -442t229 442t-229 442t-229 -442z" />
<glyph unicode="&#xf1;" horiz-adv-x="1105" d="M78 0v49h86q25 0 35 10t10 35v746q0 25 -10 35t-35 10h-86v49h278v-189l9 -2q54 103 128 159t156 56q103 0 166 -53q50 -40 72 -112t22 -140v-559q0 -25 10 -35t35 -10h86v-49h-409v49h86q25 0 35 10t10 35v600q0 41 -6 76t-19.5 68t-40.5 52t-65 19q-43 0 -91.5 -31 t-89 -82t-67.5 -125t-27 -151v-426q0 -25 10 -35t35 -10h86v-49h-409zM283 1139q0 80 42 136t121 56q54 0 103 -20.5t93.5 -41t86.5 -20.5q34 0 50.5 21t23.5 61h45q0 -80 -42.5 -136t-121.5 -56q-54 0 -103 20.5t-93.5 41t-86.5 20.5q-34 0 -50 -20.5t-23 -61.5h-45z" />
<glyph unicode="&#xf2;" horiz-adv-x="1015" d="M98 467q0 203 119.5 347t290.5 144t290.5 -144t119.5 -347q0 -133 -54.5 -246t-149 -179.5t-206.5 -66.5t-206.5 66.5t-149 179.5t-54.5 246zM213 1337q0 29 15 46.5t42 17.5q29 0 51.5 -14.5t49.5 -51.5l188 -272l-27 -23l-262 207q-57 43 -57 90zM279 467 q0 -442 229 -442t229 442t-229 442t-229 -442z" />
<glyph unicode="&#xf3;" horiz-adv-x="1015" d="M98 467q0 203 119.5 347t290.5 144t290.5 -144t119.5 -347q0 -133 -54.5 -246t-149 -179.5t-206.5 -66.5t-206.5 66.5t-149 179.5t-54.5 246zM279 467q0 -442 229 -442t229 442t-229 442t-229 -442zM457 1063l188 272q27 37 49.5 51.5t50.5 14.5q27 0 42.5 -18t15.5 -46 q0 -46 -58 -90l-262 -207z" />
<glyph unicode="&#xf4;" horiz-adv-x="1015" d="M98 467q0 203 119.5 347t290.5 144t290.5 -144t119.5 -347q0 -133 -54.5 -246t-149 -179.5t-206.5 -66.5t-206.5 66.5t-149 179.5t-54.5 246zM240 1067q153 98 227 309h82q74 -211 227 -309l-18 -27q-139 70 -250 189q-111 -119 -250 -189zM279 467q0 -442 229 -442 t229 442t-229 442t-229 -442z" />
<glyph unicode="&#xf5;" horiz-adv-x="1015" d="M98 467q0 203 119.5 347t290.5 144t290.5 -144t119.5 -347q0 -133 -54.5 -246t-149 -179.5t-206.5 -66.5t-206.5 66.5t-149 179.5t-54.5 246zM225 1139q0 80 42.5 136t121.5 56q54 0 103 -20.5t93.5 -41t86.5 -20.5q34 0 50 20.5t23 61.5h46q0 -80 -42.5 -136t-121.5 -56 q-54 0 -103 20.5t-93.5 41t-86.5 20.5q-34 0 -50.5 -21t-23.5 -61h-45zM279 467q0 -442 229 -442t229 442t-229 442t-229 -442z" />
<glyph unicode="&#xf6;" horiz-adv-x="1015" d="M98 467q0 203 119.5 347t290.5 144t290.5 -144t119.5 -347q0 -133 -54.5 -246t-149 -179.5t-206.5 -66.5t-206.5 66.5t-149 179.5t-54.5 246zM209 1221q0 46 30 76t76 30t76.5 -30t30.5 -76t-30.5 -76.5t-76.5 -30.5t-76 30.5t-30 76.5zM279 467q0 -442 229 -442t229 442 t-229 442t-229 -442zM594 1221q0 46 30 76t76 30t76.5 -30t30.5 -76t-30.5 -76.5t-76.5 -30.5t-76 30.5t-30 76.5z" />
<glyph unicode="&#xf7;" horiz-adv-x="1925" d="M98 500v82h1729v-82h-1729zM836 12q0 56 36 91.5t91 35.5t91 -35.5t36 -91.5t-36 -91.5t-91 -35.5t-91 35.5t-36 91.5zM836 1061q0 55 36 91t91 36t91 -36t36 -91t-36 -91t-91 -36t-91 36t-36 91z" />
<glyph unicode="&#xf8;" horiz-adv-x="1015" d="M98 12l105 127q-105 137 -105 328q0 203 119.5 347t290.5 144q153 0 268 -118l96 118l46 -36l-105 -127q105 -137 105 -328q0 -133 -54.5 -246t-149 -179.5t-206.5 -66.5q-152 0 -268 119l-97 -119zM279 467q0 -122 18 -213l405 496q-56 159 -194 159q-229 0 -229 -442z M313 184q56 -159 195 -159q229 0 229 442q0 121 -18 213z" />
<glyph unicode="&#xf9;" horiz-adv-x="1093" d="M66 885v49h278v-694q0 -41 6 -76t19.5 -68t40.5 -52t65 -19q43 0 91.5 31t89 82t67.5 125t27 151v426q0 25 -10 35t-35 10h-87v49h279v-840q0 -25 10 -35t35 -10h86v-49h-278v188l-9 2q-54 -103 -128 -159t-156 -56q-102 0 -166 54q-50 40 -72 112t-22 140v559 q0 25 -10 35t-35 10h-86zM242 1337q0 29 15 46.5t42 17.5q28 0 50.5 -14.5t49.5 -51.5l189 -272l-27 -23l-262 207q-57 43 -57 90z" />
<glyph unicode="&#xfa;" horiz-adv-x="1093" d="M66 885v49h278v-694q0 -41 6 -76t19.5 -68t40.5 -52t65 -19q43 0 91.5 31t89 82t67.5 125t27 151v426q0 25 -10 35t-35 10h-87v49h279v-840q0 -25 10 -35t35 -10h86v-49h-278v188l-9 2q-54 -103 -128 -159t-156 -56q-102 0 -166 54q-50 40 -72 112t-22 140v559 q0 25 -10 35t-35 10h-86zM485 1063l189 272q27 37 49.5 51.5t50.5 14.5q27 0 42 -17.5t15 -46.5q0 -47 -57 -90l-262 -207z" />
<glyph unicode="&#xfb;" horiz-adv-x="1093" d="M66 885v49h278v-694q0 -41 6 -76t19.5 -68t40.5 -52t65 -19q43 0 91.5 31t89 82t67.5 125t27 151v426q0 25 -10 35t-35 10h-87v49h279v-840q0 -25 10 -35t35 -10h86v-49h-278v188l-9 2q-54 -103 -128 -159t-156 -56q-102 0 -166 54q-50 40 -72 112t-22 140v559 q0 25 -10 35t-35 10h-86zM268 1067q154 98 228 309h82q74 -211 227 -309l-19 -27q-137 69 -249 189q-111 -119 -250 -189z" />
<glyph unicode="&#xfc;" horiz-adv-x="1093" d="M66 885v49h278v-694q0 -41 6 -76t19.5 -68t40.5 -52t65 -19q43 0 91.5 31t89 82t67.5 125t27 151v426q0 25 -10 35t-35 10h-87v49h279v-840q0 -25 10 -35t35 -10h86v-49h-278v188l-9 2q-54 -103 -128 -159t-156 -56q-102 0 -166 54q-50 40 -72 112t-22 140v559 q0 25 -10 35t-35 10h-86zM238 1221q0 46 30 76t76 30t76.5 -30t30.5 -76t-30.5 -76.5t-76.5 -30.5t-76 30.5t-30 76.5zM623 1221q0 46 30 76t76 30t76.5 -30t30.5 -76t-30.5 -76.5t-76.5 -30.5t-76 30.5t-30 76.5z" />
<glyph unicode="&#xfd;" horiz-adv-x="1085" d="M37 885v49h463v-49h-66q-25 0 -45 -13t-20 -36q0 -35 12 -68l213 -629l170 561q22 64 22 105q0 35 -20 57.5t-53 22.5h-49v49h372v-49h-47q-44 0 -82 -30t-59 -91l-330 -1049q-10 -33 -29.5 -66.5t-49 -65t-73 -51t-92.5 -19.5q-80 0 -131 51q-57 54 -57 129q0 57 33 86 q31 31 69 31q48 0 71.5 -30.5t23.5 -74.5q0 -23 -17 -57q-12 -20 -12 -39q0 -31 41 -31q62 0 104 47.5t62 114.5l55 178l-291 846q-24 66 -47 93.5t-74 27.5h-67zM514 1063l188 272q27 37 49.5 51.5t51.5 14.5q27 0 42 -17.5t15 -46.5q0 -47 -57 -90l-262 -207z" />
<glyph unicode="&#xfe;" horiz-adv-x="1024" d="M53 -467l107 45q22 10 31.5 22t9.5 35v1610q0 37 -33 37q-14 0 -33 -8l-61 -23l-21 49l238 101h57v-680l12 -4q57 113 147.5 177t180.5 64q44 0 84 -13t75.5 -40t57 -76t21.5 -114q0 -140 -90 -287t-234 -268q-115 -97 -254 -160v-408l-274 -108zM348 55q107 53 184 125 q101 93 157 227t56 277q0 184 -127 184q-60 0 -123.5 -59t-105 -151.5t-41.5 -182.5v-420z" />
<glyph unicode="&#xff;" horiz-adv-x="1085" d="M37 885v49h463v-49h-66q-25 0 -45 -13t-20 -36q0 -35 12 -68l213 -629l170 561q22 64 22 105q0 35 -20 57.5t-53 22.5h-49v49h372v-49h-47q-44 0 -82 -30t-59 -91l-330 -1049q-10 -33 -29.5 -66.5t-49 -65t-73 -51t-92.5 -19.5q-80 0 -131 51q-57 54 -57 129q0 57 33 86 q31 31 69 31q48 0 71.5 -30.5t23.5 -74.5q0 -23 -17 -57q-12 -20 -12 -39q0 -31 41 -31q62 0 104 47.5t62 114.5l55 178l-291 846q-24 66 -47 93.5t-74 27.5h-67zM266 1221q0 46 30.5 76t76.5 30t76 -30t30 -76t-30 -76.5t-76 -30.5t-76.5 30.5t-30.5 76.5zM651 1221 q0 46 30.5 76t76.5 30t76 -30t30 -76t-30 -76.5t-76 -30.5t-76.5 30.5t-30.5 76.5z" />
<glyph unicode="&#x152;" horiz-adv-x="2146" d="M143 729q0 195 72.5 369t210.5 285.5t311 111.5q32 0 120.5 -18.5t203.5 -18.5h942l8 -463h-51q0 17 -2.5 46t-24 103t-57.5 130q-78 119 -240 119h-329q-56 0 -56 -56v-559h181q38 0 67 12t46.5 35.5t29 48.5t16.5 61t6.5 63t1.5 63h54v-641h-54q0 45 -2 77t-11.5 74.5 t-26.5 69t-49.5 45.5t-77.5 19h-181v-584q0 -55 56 -55h329q56 0 120.5 26t105.5 80q41 56 69.5 150.5t36.5 160.5l8 66h52l-25 -549h-940q-117 0 -205.5 -18.5t-120.5 -18.5q-173 0 -311 111.5t-210.5 285.5t-72.5 369zM360 729q0 -163 19.5 -287t62.5 -219t117 -144.5 t178 -49.5q157 0 241.5 92.5t84.5 249.5v714q0 163 -78.5 254t-247.5 91q-104 0 -178 -50t-117 -145t-62.5 -219t-19.5 -287z" />
<glyph unicode="&#x153;" horiz-adv-x="1552" d="M98 467q0 134 50 246t141 178.5t203 66.5q93 0 174.5 -48.5t130.5 -125.5h4q51 82 126 128t167 46q91 0 162.5 -46t113 -121t63 -160t21.5 -172h-565q0 -100 10.5 -174t35.5 -135.5t72 -93t115 -31.5q41 0 79 12.5t77 43t67.5 91.5t38.5 147h50q-11 -151 -92 -247.5 t-224 -96.5q-103 0 -189 46.5t-130 125.5h-4q-50 -79 -130.5 -125.5t-172.5 -46.5q-112 0 -203 66.5t-141 179t-50 246.5zM279 467q0 -78 9.5 -149.5t32 -140.5t66.5 -110.5t105 -41.5t106 41.5t67.5 110.5t33 140.5t10.5 149.5t-10.5 149.5t-33 140.5t-67.5 110.5 t-106 41.5t-105 -41.5t-66.5 -110.5t-32 -140.5t-9.5 -149.5zM889 516h389q0 72 -10 138t-31 125t-60 94.5t-92 35.5t-92.5 -35.5t-61 -94.5t-32 -125t-10.5 -138z" />
<glyph unicode="&#x178;" horiz-adv-x="1490" d="M86 1393v65h635v-65h-123q-31 0 -51.5 -15t-20.5 -37q0 -30 11 -45l323 -546l209 401q10 15 22.5 57.5t12.5 67.5q0 48 -28 82.5t-85 34.5h-61v65h508v-65h-60q-35 0 -64.5 -13t-53 -39t-37 -45.5t-31.5 -52.5l-293 -557v-565q0 -55 55 -55h197v-66h-692v66h196 q56 0 56 55v530l-398 652q-32 53 -56 71.5t-64 18.5h-107zM487 1741q0 46 30.5 76t76.5 30t76 -30t30 -76t-30 -76.5t-76 -30.5t-76.5 30.5t-30.5 76.5zM905 1741q0 46 30.5 76t76.5 30t76 -30t30 -76t-30 -76.5t-76 -30.5t-76.5 30.5t-30.5 76.5z" />
<glyph unicode="&#x2c6;" horiz-adv-x="901" d="M182 1067q154 98 228 309h82q74 -211 227 -309l-19 -27q-137 69 -249 189q-111 -119 -250 -189z" />
<glyph unicode="&#x2dc;" horiz-adv-x="901" d="M168 1139q0 80 42.5 136t121.5 56q54 0 103 -20.5t93 -41t86 -20.5q34 0 50.5 21t23.5 61h45q0 -80 -42.5 -136t-121.5 -56q-54 0 -103 20.5t-93 41t-86 20.5q-34 0 -50.5 -21t-23.5 -61h-45z" />
<glyph unicode="&#x2000;" horiz-adv-x="971" />
<glyph unicode="&#x2001;" horiz-adv-x="1942" />
<glyph unicode="&#x2002;" horiz-adv-x="971" />
<glyph unicode="&#x2003;" horiz-adv-x="1942" />
<glyph unicode="&#x2004;" horiz-adv-x="647" />
<glyph unicode="&#x2005;" horiz-adv-x="485" />
<glyph unicode="&#x2006;" horiz-adv-x="323" />
<glyph unicode="&#x2007;" horiz-adv-x="323" />
<glyph unicode="&#x2008;" horiz-adv-x="242" />
<glyph unicode="&#x2009;" horiz-adv-x="388" />
<glyph unicode="&#x200a;" horiz-adv-x="107" />
<glyph unicode="&#x2010;" horiz-adv-x="757" d="M123 459v114h512v-114h-512z" />
<glyph unicode="&#x2011;" horiz-adv-x="757" d="M123 459v114h512v-114h-512z" />
<glyph unicode="&#x2012;" horiz-adv-x="757" d="M123 459v114h512v-114h-512z" />
<glyph unicode="&#x2013;" horiz-adv-x="1269" d="M123 500v73h1024v-73h-1024z" />
<glyph unicode="&#x2014;" horiz-adv-x="2048" d="M123 500v73h1802v-73h-1802z" />
<glyph unicode="&#x2018;" horiz-adv-x="573" d="M143 1075q0 127 63 240.5t154 179.5l29 -33q-76 -57 -124 -139.5t-48 -163.5q0 -41 37 -61q14 -8 70 -8q44 0 73 -32t29 -75q0 -54 -37.5 -86.5t-81.5 -32.5q-78 0 -125 66q-39 53 -39 145z" />
<glyph unicode="&#x2019;" horiz-adv-x="573" d="M147 1376q0 54 37.5 86.5t81.5 32.5q79 0 125 -65q39 -53 39 -146q0 -127 -63 -240.5t-154 -179.5l-29 33q76 57 124 139.5t48 163.5q0 42 -37 62q-14 8 -69 8q-44 0 -73.5 31.5t-29.5 74.5z" />
<glyph unicode="&#x201a;" horiz-adv-x="573" d="M147 168q0 54 37.5 86.5t81.5 32.5q78 0 125 -66q39 -53 39 -145q0 -127 -63 -240.5t-154 -179.5l-29 33q76 57 124 139.5t48 163.5q0 41 -37 61q-14 8 -69 8q-44 0 -73.5 32t-29.5 75z" />
<glyph unicode="&#x201c;" horiz-adv-x="954" d="M143 1075q0 127 63 240.5t154 179.5l29 -33q-76 -57 -124 -139.5t-48 -163.5q0 -41 37 -61q14 -8 70 -8q44 0 73 -32t29 -75q0 -54 -37.5 -86.5t-81.5 -32.5q-78 0 -125 66q-39 53 -39 145zM524 1075q0 127 63 240.5t154 179.5l29 -33q-76 -57 -124 -139.5t-48 -163.5 q0 -41 37 -61q14 -8 70 -8q44 0 73 -32t29 -75q0 -54 -37.5 -86.5t-81.5 -32.5q-78 0 -125 66q-39 53 -39 145z" />
<glyph unicode="&#x201d;" horiz-adv-x="954" d="M147 1376q0 54 37.5 86.5t81.5 32.5q79 0 125 -65q39 -53 39 -146q0 -127 -63 -240.5t-154 -179.5l-29 33q76 57 124 139.5t48 163.5q0 42 -37 62q-14 8 -69 8q-44 0 -73.5 31.5t-29.5 74.5zM528 1376q0 54 37.5 86.5t81.5 32.5q79 0 125 -65q39 -53 39 -146 q0 -127 -63 -240.5t-154 -179.5l-29 33q76 57 124 139.5t48 163.5q0 42 -37 62q-14 8 -69 8q-44 0 -73.5 31.5t-29.5 74.5z" />
<glyph unicode="&#x201e;" horiz-adv-x="954" d="M147 168q0 54 37.5 86.5t81.5 32.5q78 0 125 -66q39 -53 39 -145q0 -127 -63 -240.5t-154 -179.5l-29 33q76 57 124 139.5t48 163.5q0 41 -37 61q-14 8 -69 8q-44 0 -73.5 32t-29.5 75zM528 168q0 54 37.5 86.5t81.5 32.5q78 0 125 -66q39 -53 39 -145q0 -127 -63 -240.5 t-154 -179.5l-29 33q76 57 124 139.5t48 163.5q0 41 -37 61q-14 8 -69 8q-44 0 -73.5 32t-29.5 75z" />
<glyph unicode="&#x2022;" horiz-adv-x="1024" d="M279 725q0 98 67.5 165.5t165.5 67.5t165.5 -67.5t67.5 -165.5t-67.5 -165.5t-165.5 -67.5t-165.5 67.5t-67.5 165.5z" />
<glyph unicode="&#x2026;" horiz-adv-x="1720" d="M160 102q0 56 36 91.5t91 35.5t91 -35.5t36 -91.5t-36 -91.5t-91 -35.5t-91 35.5t-36 91.5zM733 102q0 56 35.5 91.5t91.5 35.5t91.5 -35.5t35.5 -91.5t-35.5 -91.5t-91.5 -35.5t-91.5 35.5t-35.5 91.5zM1307 102q0 56 35.5 91.5t91.5 35.5t91.5 -35.5t35.5 -91.5 t-35.5 -91.5t-91.5 -35.5t-91.5 35.5t-35.5 91.5z" />
<glyph unicode="&#x202f;" horiz-adv-x="388" />
<glyph unicode="&#x2039;" horiz-adv-x="675" d="M221 467q0 92 40 178.5t90.5 140.5t107.5 91l30 -31q-74 -66 -113.5 -166.5t-39.5 -212.5t39.5 -212.5t113.5 -166.5l-30 -31q-57 37 -107.5 91t-90.5 140.5t-40 178.5z" />
<glyph unicode="&#x203a;" horiz-adv-x="675" d="M186 88q74 67 114 167t40 212t-40 212t-114 167l31 31q57 -37 107.5 -91t90.5 -140.5t40 -178.5t-40 -178.5t-90.5 -140.5t-107.5 -91z" />
<glyph unicode="&#x205f;" horiz-adv-x="485" />
<glyph unicode="&#x20ac;" d="M70 586l12 65h63q-2 14 -2 47q0 45 2 68h-75l12 65h70q23 170 96 306.5t189.5 216.5t254.5 80q121 0 242 -95q54 -43 76 -43q11 0 19 7t10 12t5 16l23 88h47v-450h-49q-43 176 -146 287.5t-227 111.5q-145 0 -229 -141t-96 -396h503l-14 -65h-494q-2 -29 -2 -68 q0 -27 2 -47h474l-13 -65h-458q0 -156 42.5 -281t124 -198.5t187.5 -73.5q71 0 130.5 27t99.5 73t66.5 100.5t39.5 116.5h53q-13 -69 -40 -132t-71.5 -121.5t-116.5 -94t-161 -35.5q-161 0 -286 82t-196 220.5t-87 316.5h-80z" />
<glyph unicode="&#x2122;" horiz-adv-x="2007" d="M61 1098l15 360h727l12 -360h-41q-12 111 -61 209q-27 51 -60.5 76.5t-95.5 25.5q-25 0 -35 -10t-10 -35v-651q0 -25 10 -35t35 -10h86v-50h-410v50h86q25 0 35.5 10t10.5 35v651q0 25 -10.5 35t-35.5 10q-62 0 -95 -25.5t-60 -76.5q-22 -44 -37.5 -96t-20.5 -83l-4 -30 h-41zM954 618v50h41q46 0 62 27.5t16 82.5v586q0 25 -10 35t-35 10h-74v49h283l209 -604l190 604h293v-49h-74q-25 0 -35 -10t-10 -35v-651q0 -25 10 -35t35 -10h74v-50h-385v50h74q25 0 35 10t10 35v639l-246 -750h-37l-250 717v-541q0 -55 16 -82.5t62 -27.5h41v-50h-295z " />
<glyph unicode="&#x25fc;" horiz-adv-x="931" d="M0 0v932h932v-932h-932z" />
</font>
</defs>
</svg>
